<svg width="191" height="217" viewBox="0 0 191 217" fill="none" xmlns="http://www.w3.org/2000/svg">
<path d="M96.063 211.954C95.4995 211.393 96.063 210.271 95.4995 209.711C95.4995 210.271 94.9359 210.832 94.9359 211.393C94.9359 211.954 94.9359 212.514 94.9359 213.075C94.9359 214.196 94.9359 214.196 93.8088 214.196C93.2452 214.196 92.6817 214.196 92.6817 214.196C91.5545 214.196 90.4274 214.196 89.3003 214.757C88.1732 214.757 87.0461 215.318 86.4825 215.318C85.3554 215.318 84.2282 215.318 83.1011 215.318C81.4104 215.318 80.2833 215.318 78.5926 215.318C76.3384 215.318 74.0841 215.318 71.8299 215.318C71.8299 215.318 71.8299 215.318 71.8299 215.879C71.8299 215.879 72.3934 216.439 71.8299 216.439C71.8299 216.439 71.2663 216.439 71.2663 215.879C70.7028 215.879 71.2663 215.318 71.2663 215.318C69.5756 215.318 67.3214 215.318 65.6307 215.318C63.94 215.318 62.2493 215.318 61.1222 215.318C59.9951 215.318 58.868 215.318 57.7408 215.318H57.1773C56.6137 215.879 56.0502 215.879 55.4866 215.879C52.1052 215.879 48.7239 215.879 45.9061 215.879C43.6518 215.879 41.9611 215.879 39.7069 215.879C38.5798 215.879 37.4526 215.879 36.8891 215.879H36.3255C35.1984 215.318 34.0713 215.318 33.5077 216.439C33.5077 216.439 32.9441 217 32.9441 216.439C31.817 216.439 30.6899 216.439 29.5628 216.439C28.9992 216.439 27.8721 216.439 27.3085 216.439C27.3085 216.439 26.745 216.439 26.745 215.879C26.1814 215.318 25.0543 215.318 23.9271 215.318C23.9271 215.879 24.4907 215.879 24.4907 215.879C24.4907 216.439 23.9271 215.879 23.3636 215.879C19.9822 215.879 16.0373 215.879 12.6559 215.879C11.5288 215.879 10.4017 215.879 8.71098 215.879C7.0203 215.879 5.89317 215.879 4.20249 215.318C3.63893 215.318 3.63893 215.318 3.63893 214.757C3.07537 214.196 2.5118 213.075 1.94824 212.514C1.94824 212.514 1.94824 211.954 1.94824 211.393C1.94824 201.3 1.94824 190.646 1.94824 180.553C1.94824 171.581 1.94824 162.049 1.94824 153.078C1.94824 150.835 1.94824 149.153 1.94824 146.91C1.94824 145.788 1.94824 144.667 1.94824 143.545C1.94824 142.985 1.94824 141.863 1.94824 141.302C1.94824 140.181 1.94824 139.62 1.94824 138.499V137.938C1.94824 136.256 1.94824 134.574 1.94824 132.892C1.94824 132.331 1.94824 131.209 1.94824 130.649V130.088C2.5118 129.527 2.5118 129.527 2.5118 128.967V128.406C2.5118 127.284 2.5118 125.602 1.94824 124.481C1.94824 123.92 1.94824 123.359 1.94824 122.799C1.94824 121.116 1.94824 119.995 1.94824 118.313V117.752C3.07537 116.631 3.63893 116.07 4.76605 114.948C5.32961 114.948 5.32961 114.388 5.89317 114.388C8.71098 114.388 11.5288 114.388 14.3466 114.388C23.3636 114.388 31.817 114.388 40.834 114.388C44.2154 114.388 47.5967 114.388 50.9781 114.388C53.2323 114.388 55.4866 114.388 57.7408 114.388C59.4315 114.388 61.1222 114.388 62.8129 114.388C64.5036 114.388 65.6307 114.388 67.3214 114.388C69.5756 114.388 71.8299 114.388 74.0841 114.388C77.4655 114.388 80.8469 114.388 84.7918 114.388C85.9189 114.388 85.9189 114.388 85.9189 115.509C85.9189 116.631 85.9189 117.752 85.3554 118.873C85.3554 119.995 84.7918 121.677 84.7918 122.799C84.7918 123.92 84.2282 125.602 84.2282 126.724C83.6647 128.406 83.6647 129.527 83.1011 131.209C82.5376 133.452 81.974 135.695 81.4104 137.938C80.8469 141.302 79.7197 144.106 78.5926 146.91C77.4655 150.274 75.7748 153.078 73.5206 155.881C72.3934 157.563 70.7028 159.806 69.5756 161.488C67.3214 164.292 65.0671 166.535 62.2493 169.339C61.1222 170.46 59.4315 172.142 58.3044 173.264C57.1773 174.385 55.4866 176.067 54.3595 177.189C53.2324 178.31 52.1052 179.432 50.4145 180.553C48.1603 182.235 46.4696 184.478 44.2154 186.721C43.6518 187.282 43.0882 187.282 43.0882 186.721C42.5247 186.16 41.9611 186.16 41.3976 186.721C40.2704 187.842 39.1433 189.525 38.5798 190.646C36.8891 192.889 35.7619 195.693 34.6348 197.935C33.5077 199.618 32.9441 201.861 32.9441 203.543C32.9441 205.225 32.9441 207.468 33.5077 209.15C34.0713 210.271 34.6348 210.832 35.7619 211.954C36.3255 211.954 36.3255 211.954 36.8891 211.393C38.0162 209.711 38.5798 208.029 39.7069 206.907C41.3976 203.543 43.0882 200.178 45.3425 196.814C44.2154 196.253 45.906 194.571 47.0332 192.889C48.1603 191.207 49.851 190.085 50.9781 188.403C52.6688 186.721 54.3595 185.039 56.0502 183.357C57.1773 181.675 58.868 180.553 60.5587 179.432C63.3765 176.628 66.7578 174.385 70.1392 172.142C71.8299 171.021 74.0841 169.339 75.7748 168.217C76.3384 168.217 76.3384 168.217 76.3384 168.778C76.9019 171.021 76.9019 173.264 76.3384 175.507C75.7748 178.871 74.6477 182.235 74.0841 185.6C73.5206 187.842 72.957 190.085 72.3934 192.328C72.3934 192.889 72.3934 193.45 72.3934 194.571C72.3934 196.253 71.8299 197.375 71.2663 198.496C70.7028 199.057 70.7028 199.618 70.1392 200.178C69.5756 201.3 70.1392 201.861 70.7028 202.421C71.8299 203.543 72.957 204.664 74.0841 205.225C76.9019 206.907 79.1562 208.589 81.974 210.271C83.6647 210.832 85.3554 211.954 87.0461 211.954C88.7367 212.514 90.4274 212.514 92.1181 211.954C92.1181 211.954 92.6817 211.954 92.6817 211.393C92.6817 210.832 92.1181 210.832 92.1181 210.271C90.991 209.15 89.3003 208.029 87.6096 207.468C85.9189 206.346 84.2282 205.225 83.1011 204.103C81.974 202.982 80.8469 201.3 80.2833 199.618C79.7197 198.496 79.7197 197.935 79.7197 196.814C79.7197 192.889 80.2833 189.525 81.4104 186.16C81.974 183.357 83.1011 179.992 84.2282 177.189C85.3554 174.946 86.4825 172.703 87.6096 170.46C89.8639 165.974 91.5545 162.049 93.8088 157.563C94.3723 156.442 94.9359 155.881 94.9359 154.76L95.4995 154.199V154.76C95.4995 160.367 95.4995 166.535 95.4995 172.142C95.4995 177.749 95.4995 183.357 95.4995 188.964C95.4995 190.646 95.4995 192.889 95.4995 194.571C95.4995 195.132 95.4995 196.253 95.4995 196.814C95.4995 197.935 95.4995 199.057 95.4995 199.618C95.4995 201.861 95.4995 204.103 95.4995 206.346C96.063 209.15 96.6266 210.271 96.063 211.954ZM3.07537 204.103C2.5118 203.543 2.5118 202.982 3.07537 204.103C2.5118 203.543 1.94824 204.103 1.94824 204.103C1.94824 204.103 1.94824 204.103 3.07537 204.103C2.5118 204.103 2.5118 204.103 3.07537 204.103Z" fill="white"/>
<path d="M142.275 101.491C145.656 101.491 147.911 101.491 150.728 101.491H151.292C150.728 101.491 150.728 101.491 150.165 101.491C149.038 101.491 147.347 101.491 146.22 101.491C143.966 101.491 142.275 101.491 140.021 101.491C138.894 101.491 137.766 101.491 136.076 101.491C135.512 101.491 134.949 101.491 134.385 100.93C134.385 100.37 133.821 100.37 133.258 100.37C131.004 100.37 129.313 100.37 127.059 100.37C127.622 100.37 128.749 100.37 129.313 100.93C127.622 102.052 121.987 102.052 121.423 100.93C121.987 100.93 122.55 100.93 123.114 100.37C121.987 99.8088 119.732 99.8088 119.169 100.37L119.732 100.93C120.296 101.491 119.732 101.491 119.732 101.491C118.605 101.491 116.915 101.491 115.787 101.491C115.224 101.491 115.224 100.93 115.224 100.93C115.224 100.37 115.224 99.2481 115.224 98.6873C115.224 97.5659 115.787 96.4444 115.787 95.323C115.787 94.2015 116.351 93.0801 116.351 91.9586C116.351 90.8372 116.351 89.7158 116.915 88.5943C116.915 87.4729 117.478 85.7907 117.478 84.6693C117.478 84.1085 117.478 83.5478 117.478 82.9871C117.478 81.8656 117.478 80.7442 117.478 79.6227C117.478 76.2584 117.478 72.3333 117.478 68.969C117.478 67.2868 117.478 65.6046 117.478 63.9225C117.478 62.2403 117.478 60.5581 117.478 58.876C117.478 56.6331 118.042 54.3902 119.169 52.1473C120.296 49.3437 121.987 47.1008 123.114 44.8579C124.804 42.0543 125.932 39.2506 127.622 36.447C129.313 33.6434 130.44 30.8398 131.567 27.4755C133.258 24.1111 134.385 20.7468 136.076 17.3824C137.203 14.5788 138.33 11.7752 138.894 8.97158C139.457 7.28941 140.021 5.60723 140.021 3.92506C139.457 3.92506 139.457 4.48579 138.894 5.04651C138.33 7.85013 137.203 10.6537 135.512 12.8966C134.949 14.0181 133.258 14.0181 132.131 14.0181C132.131 14.0181 131.567 14.0181 131.004 14.0181C131.004 14.0181 130.44 14.0181 130.44 14.5788V15.1395C130.44 18.5039 129.877 21.3075 128.749 24.1111C128.186 25.7933 127.059 27.4755 126.495 29.7183C124.804 33.0827 123.114 35.8863 120.86 39.2506C119.732 40.9328 118.605 42.0543 117.478 43.7364C116.915 44.2972 116.351 45.4186 115.224 45.9793C113.533 47.6615 111.279 49.3437 107.898 50.4651C107.898 50.4651 107.334 50.4651 106.771 50.4651C106.771 49.9044 106.771 49.9044 106.771 49.3437C106.771 35.8863 106.771 22.4289 106.771 8.41085C106.771 7.28941 106.771 6.16796 106.771 5.04651C106.771 3.92506 106.771 2.80362 107.898 2.24289C108.461 1.68217 109.025 1.12145 109.588 0.560723C109.025 0 109.588 0 110.152 0C113.533 0 116.915 0 120.296 0C127.622 0 134.949 0 142.275 0C151.292 0 160.872 0 169.889 0C174.961 0 180.034 0 185.106 0C185.669 0 186.796 0 187.36 1.12145C187.923 1.68217 189.051 2.80362 189.614 3.36434C190.178 3.92506 190.178 3.92506 189.051 4.48579C188.487 4.48579 188.487 4.48579 188.487 5.04651C188.487 6.72868 188.487 7.85013 188.487 9.5323C188.487 11.2145 188.487 12.8966 188.487 14.5788C188.487 15.7003 187.923 17.3824 187.923 18.5039C187.923 19.0646 187.923 20.186 187.923 20.7468C187.923 24.6718 187.923 28.5969 187.923 33.0827C187.923 43.7364 187.923 53.8295 187.923 64.4832C187.923 67.8475 187.923 71.2119 187.923 74.5762C187.923 76.2584 188.487 77.9406 188.487 79.6227C188.487 80.1835 188.487 81.3049 188.487 81.8656C187.923 83.5478 187.923 85.23 187.923 86.9121C187.923 88.5943 187.923 90.8372 187.923 92.5194C187.923 93.6408 187.923 95.323 187.36 96.4444C186.796 96.4444 186.796 96.4444 186.796 97.0052C186.796 98.1266 186.796 99.2481 186.796 100.37C186.796 100.93 186.796 100.93 186.233 100.93C185.669 100.93 184.542 100.93 183.978 100.93C182.851 100.93 182.288 100.93 181.161 100.93C178.906 100.93 177.216 100.93 174.961 100.93C171.017 100.93 166.508 100.93 162.563 100.93C159.182 100.93 156.364 100.93 152.983 100.93C151.855 100.93 150.165 100.93 149.038 100.93C147.347 100.93 146.22 100.93 144.529 100.93C143.966 100.93 143.402 100.93 142.275 101.491Z" fill="white"/>
<path d="M178.907 200.739C178.907 201.861 178.907 202.982 178.907 204.103C178.907 205.225 178.907 205.225 177.78 205.225C176.089 205.225 174.962 205.225 173.271 205.225C170.454 205.225 168.199 205.225 165.382 205.225C163.691 205.225 161.437 205.225 159.746 205.225C159.182 205.225 158.619 205.225 158.055 205.786C157.492 206.346 156.928 206.346 156.928 205.786C156.928 205.786 156.928 205.225 157.492 204.664C156.365 204.664 155.237 204.664 154.674 204.664C149.038 204.664 143.966 204.664 138.331 204.664C137.204 204.664 136.64 204.664 135.513 205.225C136.076 205.225 136.076 205.786 136.64 205.786C139.458 205.786 142.276 205.786 144.53 205.786H145.093C145.093 206.346 145.093 206.346 144.53 206.346C143.403 206.346 142.839 206.907 141.712 206.907C138.894 206.907 136.076 206.907 133.259 206.907C132.131 206.907 130.441 206.907 129.314 206.907C128.75 206.907 128.75 206.907 128.187 206.346C128.187 205.786 127.623 205.786 127.059 205.786C125.369 205.786 123.678 205.786 121.424 205.786C121.987 205.786 122.551 205.786 123.114 206.346H123.678C122.551 207.468 121.987 207.468 121.424 207.468C119.733 207.468 118.606 207.468 116.915 207.468C116.352 207.468 116.352 207.468 115.788 206.907C115.788 206.907 116.352 206.907 116.915 206.346C116.352 206.346 115.788 206.346 115.788 206.346C115.225 206.346 115.225 206.907 115.225 206.907C115.225 207.468 115.225 207.468 114.661 207.468C113.534 207.468 112.407 208.029 110.716 208.029C109.589 208.029 107.898 208.029 106.771 208.029C105.644 208.029 105.081 207.468 104.517 206.907C103.953 206.346 103.39 205.225 102.826 204.664C102.263 204.664 102.263 204.103 102.263 203.543C102.263 183.357 102.263 163.171 102.263 143.545C102.263 141.863 102.826 140.742 103.39 139.62C105.081 134.013 107.335 128.967 109.025 123.359C110.153 118.873 111.843 114.948 112.97 110.463C112.97 109.902 113.534 109.341 113.534 108.78C113.534 108.22 114.661 108.22 115.225 108.22C118.042 108.22 120.297 108.22 123.114 108.22C124.805 108.22 125.932 108.22 127.623 108.22C144.53 108.22 161.437 108.22 178.344 108.22C178.907 108.22 179.471 108.22 180.034 108.78C180.598 109.341 181.161 109.902 181.161 110.463C181.725 111.584 182.288 112.706 181.725 113.827C181.161 114.388 181.161 115.509 181.725 116.07C181.725 116.631 181.725 117.191 181.725 117.752C181.725 119.995 181.725 121.677 181.725 123.92C181.725 126.163 181.725 127.845 181.725 130.088C181.725 131.77 181.725 133.452 181.725 135.134C181.725 139.62 181.725 144.106 181.725 148.592C181.725 153.638 181.725 158.685 181.725 163.731C181.725 165.414 181.725 167.096 181.725 168.778C181.725 170.46 181.725 172.142 181.725 173.824C181.725 174.946 181.725 175.507 181.725 176.628C181.725 178.871 181.725 181.114 182.288 182.796C182.288 183.917 182.288 184.478 182.288 185.6C182.288 186.721 182.288 187.842 181.725 188.964C181.725 189.525 181.725 189.525 181.725 190.085C181.725 191.768 181.725 194.01 181.725 195.693C181.725 197.375 181.725 198.496 181.725 200.178C181.725 200.739 181.725 200.739 181.725 201.3C179.471 201.3 179.471 201.3 178.907 200.739Z" fill="white"/>
<path d="M31.2543 19.0647C31.8179 20.7469 32.945 21.3076 34.0721 22.429C35.1993 24.1112 36.3264 25.2327 37.4535 26.9148C38.5806 28.597 39.7078 30.2792 41.3984 31.4006C43.0891 33.0828 44.2163 35.3257 45.9069 37.0079C47.5976 39.2507 48.7247 41.4936 50.979 43.1758C52.1061 45.9794 54.3604 47.1009 57.1782 47.6616C59.4324 48.2223 61.1231 48.7831 63.3773 49.3438C65.6316 49.9045 67.3223 50.4652 69.013 51.5867C71.2672 52.7081 72.9579 53.8296 74.6486 55.5117C75.7757 56.6332 77.4664 57.7546 78.5935 58.8761C80.2842 60.5582 82.5384 62.2404 84.2291 63.9226C86.4834 66.1655 88.7376 68.9691 90.9919 71.7727C92.119 73.4549 93.2461 75.6978 93.8097 77.9407C93.8097 78.5014 93.8097 79.6228 93.8097 80.7443C93.8097 82.9872 93.8097 84.6693 93.2461 86.9122C92.6825 88.5944 91.5554 90.2766 90.9919 91.398C90.4283 93.0802 89.3012 94.2017 88.7376 95.8838C87.6105 97.566 87.0469 99.2482 87.0469 101.491C86.4834 103.173 86.4834 104.855 85.9198 106.538C85.9198 107.659 85.9198 108.78 85.3562 109.341C85.3562 109.902 85.3562 109.902 84.7927 109.902C81.9749 109.902 79.7206 109.902 76.9028 109.902C72.9579 109.902 69.013 109.902 65.068 109.902C62.2502 109.902 59.4324 109.902 56.6146 109.902H57.1782C58.8689 109.902 60.5595 109.902 61.6867 109.902C61.6867 109.902 62.8138 109.902 62.2502 110.463C62.2502 110.463 61.6867 110.463 61.1231 110.463C59.996 110.463 58.8689 110.463 57.1782 110.463C53.7968 110.463 50.4154 110.463 46.4705 110.463C45.9069 110.463 44.7798 110.463 44.2162 109.902C44.2162 109.902 43.6527 109.341 43.6527 109.902V110.463C43.6527 110.463 43.6527 110.463 43.6527 111.023C43.0891 111.584 43.0891 111.584 42.5256 111.584C42.5256 111.584 41.962 111.584 41.962 111.023C41.962 109.902 40.8349 109.902 40.2713 109.902C37.4535 109.341 34.0721 109.902 31.2543 109.902C30.6908 109.902 30.1272 109.902 29.0001 109.902C29.5636 109.902 30.1272 110.463 30.1272 110.463C30.1272 110.463 30.6908 110.463 30.6908 111.023C30.6908 111.023 30.6908 111.023 30.1272 111.023C29.5636 111.023 29.5636 111.023 29.0001 111.023C25.6187 111.584 22.8009 111.584 19.4195 111.584C18.2924 111.584 17.7289 111.584 17.1653 110.463L16.6017 109.902C15.4746 109.341 15.4746 108.22 15.4746 107.098C15.4746 91.398 15.4746 76.2585 15.4746 60.5582C15.4746 44.858 15.4746 28.597 15.4746 12.8967C15.4746 11.7753 15.4746 10.6538 16.6017 10.0931C17.7289 10.0931 18.2924 9.5324 18.856 8.97168H19.4195C21.6738 8.97168 24.4916 8.97168 26.7458 8.97168C38.5806 8.97168 50.979 8.97168 62.8138 8.97168C63.9409 8.97168 65.6316 8.97168 66.7587 8.97168C70.1401 8.97168 73.5215 8.97168 76.9028 8.97168C79.7206 8.97168 83.102 8.97168 85.9198 8.97168C89.3012 8.97168 92.6825 8.97168 95.5004 8.97168C96.0639 8.97168 96.6275 8.97168 96.6275 9.5324C97.191 10.0931 98.3182 11.2146 98.8817 11.7753C99.4453 12.336 99.4453 12.336 99.4453 12.8967C99.4453 17.3825 99.4453 21.8683 99.4453 26.3541C99.4453 32.5221 99.4453 38.69 99.4453 44.858C99.4453 45.9794 99.4453 47.1009 98.8817 48.2223C98.8817 48.2223 98.8817 48.783 98.3182 48.783C98.3182 48.783 97.7546 48.7831 97.7546 48.2223C97.191 47.6616 97.191 47.1009 97.191 46.5402C96.6275 44.858 96.6275 42.6151 96.6275 40.9329C96.6275 38.69 97.191 37.0079 97.191 34.765C97.191 32.5221 97.7546 30.8399 96.6275 28.597C96.0639 27.4756 95.5004 26.9148 94.3732 26.3541C93.2461 25.7934 92.119 25.2327 90.4283 24.6719C87.6105 24.1112 84.7927 24.6719 82.5384 27.4756C81.4113 29.1577 80.2842 31.4006 79.7206 33.6435C79.1571 35.8864 79.1571 38.1293 80.2842 40.3722C80.8478 41.4936 81.4113 42.6151 82.5384 43.7365C83.102 44.2973 84.2291 44.858 84.7927 45.9794C85.3562 46.5402 85.3562 46.5402 84.7927 47.1009C84.7927 47.1009 84.7927 47.1009 84.2291 47.1009C83.102 47.1009 81.4113 47.1009 80.2842 47.1009C76.9028 47.1009 73.5214 46.5402 70.7036 45.4187C67.8858 44.2973 65.068 43.1758 62.2502 42.0544C59.4324 40.9329 56.051 39.2507 52.6697 37.0079C50.4154 35.3257 48.1612 34.2042 45.9069 31.9613C43.6527 30.2792 41.3984 28.0363 40.2713 25.2327C40.2713 24.6719 39.7078 24.1112 39.1442 23.5505C39.1442 22.9898 38.5806 22.9898 38.5806 23.5505C37.4535 24.6719 37.4535 24.6719 36.3264 23.5505C35.1993 22.9898 34.0721 21.3076 32.3815 20.1861C32.3815 19.6254 31.8179 19.6254 31.2543 19.0647Z" fill="white"/>
<path d="M36.3259 110.462C36.8894 110.462 38.0166 110.462 39.1437 110.462C39.1437 110.462 39.7072 110.462 39.7072 111.023L39.1437 111.584C37.453 111.584 36.3259 111.584 34.6352 111.584C34.0716 111.584 33.5081 111.584 32.3809 111.023C32.3809 111.023 31.8174 111.023 31.8174 110.462C31.8174 110.462 31.8174 110.462 32.3809 109.902C32.9445 109.341 34.0716 109.341 34.6352 109.341C35.1988 109.902 35.7623 110.462 36.3259 110.462Z" fill="white"/>
<path d="M127.623 206.907C127.623 207.468 127.623 207.468 127.623 206.907C127.06 207.468 126.496 207.468 125.933 207.468C125.933 207.468 125.369 207.468 125.369 206.907C125.369 206.907 125.369 206.347 125.933 206.347C126.496 206.907 127.06 206.907 127.623 206.907Z" fill="white"/>
<path d="M132.695 102.612H132.132C131.568 102.052 131.568 102.052 132.132 102.052C132.695 102.052 132.695 102.052 133.259 102.052L133.822 102.612C133.822 102.612 133.259 102.612 132.695 102.612Z" fill="white"/>
<path d="M75.7756 110.463C75.7756 111.024 75.212 111.024 75.212 111.024C74.6484 111.024 74.6484 111.024 74.6484 110.463C74.6484 109.902 75.212 109.902 75.212 109.902C75.212 109.902 75.212 110.463 75.7756 110.463Z" fill="white"/>
</svg>
