<svg width="905" height="1819" viewBox="0 0 905 1819" fill="none" xmlns="http://www.w3.org/2000/svg">
<g clip-path="url(#clip0_258_2)">
<rect width="905" height="1819" fill="#FEFEFE"/>
<path d="M1022.97 160.7C1023.87 165.996 1024.47 171.39 1024.78 176.865L1024.28 176.893C1024.42 179.576 1024.5 182.279 1024.5 185C1024.5 187.721 1024.42 190.424 1024.28 193.107L1024.78 193.135C1024.47 198.61 1023.87 204.004 1022.97 209.3L1022.48 209.217C1021.57 214.591 1020.37 219.864 1018.89 225.019L1019.37 225.157C1017.86 230.401 1016.06 235.523 1014 240.504L1013.54 240.313C1011.46 245.327 1009.1 250.198 1006.49 254.909L1006.93 255.151C1004.3 259.908 1001.4 264.502 998.267 268.913L997.859 268.623C994.723 273.035 991.346 277.262 987.747 281.287L988.12 281.621C984.504 285.664 980.664 289.504 976.621 293.12L976.287 292.747C972.262 296.346 968.035 299.723 963.623 302.859L963.913 303.267C959.502 306.402 954.908 309.296 950.151 311.931L949.909 311.494C945.198 314.103 940.327 316.456 935.313 318.535L935.504 318.997C930.523 321.063 925.401 322.859 920.157 324.367L920.019 323.887C914.864 325.369 909.591 326.573 904.217 327.48L904.3 327.973C899.004 328.866 893.61 329.473 888.135 329.776L888.107 329.276C885.424 329.425 882.721 329.5 880 329.5C877.279 329.5 874.576 329.425 871.893 329.276L871.865 329.776C866.39 329.473 860.996 328.866 855.7 327.973L855.783 327.48C850.409 326.573 845.136 325.369 839.981 323.887L839.843 324.367C834.599 322.859 829.477 321.063 824.496 318.997L824.687 318.535C819.673 316.456 814.802 314.103 810.091 311.494L809.849 311.931C805.092 309.296 800.498 306.402 796.087 303.267L796.377 302.859C791.965 299.723 787.738 296.346 783.713 292.747L783.379 293.12C779.336 289.504 775.496 285.664 771.88 281.621L772.253 281.287C768.654 277.262 765.277 273.035 762.141 268.623L761.733 268.913C758.598 264.502 755.704 259.908 753.069 255.151L753.506 254.909C750.897 250.198 748.544 245.327 746.465 240.313L746.003 240.504C743.937 235.523 742.141 230.401 740.633 225.157L741.113 225.019C739.631 219.864 738.427 214.591 737.52 209.217L737.027 209.3C736.134 204.004 735.527 198.61 735.224 193.135L735.724 193.107C735.575 190.424 735.5 187.721 735.5 185C735.5 182.279 735.575 179.576 735.724 176.893L735.224 176.865C735.527 171.39 736.134 165.996 737.027 160.7L737.52 160.783C738.427 155.409 739.631 150.136 741.113 144.981L740.633 144.843C742.141 139.599 743.937 134.477 746.003 129.496L746.465 129.687C748.544 124.673 750.897 119.802 753.506 115.091L753.069 114.849C755.704 110.092 758.598 105.498 761.733 101.087L762.141 101.377C765.277 96.9653 768.654 92.7376 772.253 88.7127L771.88 88.3794C775.496 84.3358 779.336 80.4963 783.379 76.8803L783.713 77.253C787.738 73.6537 791.965 70.2766 796.377 67.141L796.087 66.7335C800.498 63.5982 805.092 60.7036 809.849 58.0686L810.091 58.506C814.802 55.8971 819.673 53.5437 824.687 51.4645L824.496 51.0027C829.477 48.9369 834.599 47.1408 839.843 45.6327L839.981 46.1132C845.136 44.6305 850.409 43.4271 855.783 42.5204L855.7 42.0273C860.996 41.1336 866.39 40.5271 871.865 40.2243L871.893 40.7236C874.576 40.5752 877.279 40.5 880 40.5C882.721 40.5 885.424 40.5752 888.107 40.7236L888.135 40.2243C893.61 40.5271 899.004 41.1336 904.3 42.0273L904.217 42.5204C909.591 43.4271 914.864 44.6305 920.019 46.1132L920.157 45.6327C925.401 47.1408 930.523 48.9369 935.504 51.0027L935.313 51.4645C940.327 53.5437 945.198 55.8971 949.909 58.506L950.151 58.0686C954.908 60.7036 959.502 63.5982 963.913 66.7335L963.623 67.141C968.035 70.2766 972.262 73.6537 976.287 77.253L976.621 76.8803C980.664 80.4963 984.504 84.3358 988.12 88.3794L987.747 88.7127C991.346 92.7376 994.723 96.9653 997.859 101.377L998.267 101.087C1001.4 105.498 1004.3 110.092 1006.93 114.849L1006.49 115.091C1009.1 119.802 1011.46 124.673 1013.54 129.687L1014 129.496C1016.06 134.477 1017.86 139.599 1019.37 144.843L1018.89 144.981C1020.37 150.136 1021.57 155.409 1022.48 160.783L1022.97 160.7Z" stroke="#FF952C" stroke-dasharray="17 17"/>
<path d="M180.847 488.87C181.536 494.378 182.002 499.958 182.235 505.6L181.735 505.621C181.85 508.399 181.907 511.193 181.907 514C181.907 516.807 181.85 519.601 181.735 522.379L182.235 522.4C182.002 528.042 181.536 533.622 180.847 539.13L180.35 539.068C179.652 544.648 178.724 550.153 177.576 555.574L178.065 555.678C176.898 561.185 175.505 566.606 173.896 571.929L173.418 571.784C171.794 577.157 169.949 582.431 167.895 587.593L168.36 587.778C166.281 593 163.989 598.109 161.494 603.094L161.047 602.87C158.54 607.878 155.828 612.761 152.921 617.505L153.348 617.766C150.417 622.55 147.289 627.195 143.976 631.687L143.574 631.39C140.254 635.892 136.748 640.24 133.068 644.423L133.444 644.753C129.742 648.961 125.864 653.002 121.822 656.863L121.477 656.502C117.438 660.36 113.236 664.039 108.881 667.526L109.193 667.917C104.826 671.414 100.306 674.72 95.6448 677.821L95.3678 677.404C90.7257 680.493 85.9438 683.378 81.0338 686.047L81.2726 686.487C76.3658 689.154 71.3315 691.607 66.1815 693.833L65.9832 693.375C60.8775 695.581 55.6579 697.565 50.336 699.312L50.492 699.787C45.2013 701.525 39.8098 703.03 34.3286 704.291L34.2165 703.804C28.8126 705.047 23.3214 706.053 17.7538 706.81L17.8211 707.306C12.319 708.054 6.74245 708.56 1.10199 708.812L1.07962 708.313C-1.6972 708.437 -4.48959 708.5 -7.2963 708.5C-10.103 708.5 -12.8954 708.437 -15.6723 708.313L-15.6946 708.812C-21.3351 708.56 -26.9116 708.054 -32.4137 707.306L-32.3464 706.81C-37.914 706.053 -43.4052 705.047 -48.8091 703.804L-48.9212 704.291C-54.4024 703.03 -59.7939 701.525 -65.0846 699.787L-64.9286 699.312C-70.2505 697.565 -75.4701 695.581 -80.5757 693.375L-80.7741 693.833C-85.9241 691.607 -90.9584 689.155 -95.8652 686.487L-95.6264 686.047C-100.536 683.378 -105.318 680.493 -109.96 677.404L-110.237 677.821C-114.898 674.72 -119.418 671.414 -123.786 667.917L-123.473 667.526C-127.828 664.039 -132.031 660.36 -136.069 656.502L-136.415 656.863C-140.457 653.002 -144.334 648.961 -148.036 644.753L-147.661 644.423C-151.341 640.24 -154.847 635.892 -158.166 631.39L-158.569 631.687C-161.882 627.195 -165.009 622.55 -167.94 617.766L-167.514 617.505C-170.42 612.761 -173.133 607.878 -175.64 602.87L-176.087 603.094C-178.582 598.109 -180.874 593 -182.952 587.778L-182.488 587.593C-184.542 582.431 -186.386 577.157 -188.01 571.784L-188.489 571.929C-190.098 566.606 -191.491 561.185 -192.657 555.678L-192.168 555.574C-193.316 550.153 -194.245 544.648 -194.943 539.068L-195.439 539.13C-196.129 533.622 -196.595 528.042 -196.827 522.4L-196.328 522.379C-196.442 519.601 -196.5 516.807 -196.5 514C-196.5 511.193 -196.442 508.399 -196.328 505.621L-196.827 505.6C-196.595 499.958 -196.129 494.378 -195.439 488.87L-194.943 488.932C-194.245 483.352 -193.316 477.847 -192.168 472.426L-192.657 472.322C-191.491 466.815 -190.098 461.394 -188.489 456.071L-188.01 456.216C-186.386 450.843 -184.542 445.569 -182.488 440.407L-182.952 440.222C-180.874 435 -178.582 429.891 -176.087 424.906L-175.64 425.13C-173.133 420.122 -170.42 415.239 -167.514 410.495L-167.94 410.234C-165.009 405.45 -161.882 400.805 -158.569 396.313L-158.166 396.61C-154.847 392.108 -151.341 387.76 -147.661 383.577L-148.036 383.247C-144.334 379.039 -140.457 374.998 -136.415 371.137L-136.069 371.498C-132.031 367.64 -127.828 363.961 -123.473 360.473L-123.786 360.083C-119.418 356.586 -114.898 353.28 -110.237 350.179L-109.96 350.596C-105.318 347.507 -100.536 344.622 -95.6264 341.953L-95.8652 341.513C-90.9584 338.846 -85.9241 336.393 -80.7741 334.167L-80.5757 334.625C-75.4701 332.419 -70.2505 330.435 -64.9286 328.688L-65.0845 328.213C-59.7939 326.475 -54.4024 324.97 -48.9212 323.709L-48.8091 324.196C-43.4052 322.953 -37.914 321.947 -32.3463 321.19L-32.4137 320.694C-26.9116 319.946 -21.335 319.44 -15.6946 319.188L-15.6722 319.687C-12.8954 319.563 -10.103 319.5 -7.2963 319.5C-4.48959 319.5 -1.69719 319.563 1.07965 319.687L1.10202 319.188C6.74246 319.44 12.319 319.946 17.8211 320.694L17.7538 321.19C23.3214 321.947 28.8126 322.953 34.2165 324.196L34.3286 323.709C39.8098 324.97 45.2013 326.475 50.492 328.213L50.336 328.688C55.6579 330.435 60.8775 332.419 65.9831 334.625L66.1815 334.167C71.3315 336.393 76.3658 338.846 81.2726 341.513L81.0338 341.952C85.9437 344.622 90.7257 347.507 95.3678 350.596L95.6448 350.179C100.306 353.28 104.826 356.586 109.193 360.083L108.881 360.473C113.236 363.961 117.438 367.64 121.477 371.498L121.822 371.137C125.864 374.998 129.742 379.039 133.444 383.247L133.068 383.577C136.748 387.76 140.254 392.108 143.574 396.61L143.976 396.313C147.289 400.805 150.417 405.45 153.348 410.234L152.921 410.495C155.828 415.239 158.54 420.122 161.047 425.13L161.494 424.906C163.989 429.891 166.281 435 168.359 440.222L167.895 440.407C169.949 445.569 171.794 450.843 173.418 456.216L173.896 456.071C175.505 461.394 176.898 466.815 178.065 472.322L177.576 472.426C178.724 477.847 179.652 483.352 180.351 488.932L180.847 488.87Z" stroke="#F4902E" stroke-dasharray="17 17"/>
<path d="M984.099 845.36C985.412 850.883 986.311 856.567 986.759 862.379L986.261 862.417C986.48 865.249 986.591 868.111 986.591 871C986.591 873.889 986.48 876.751 986.261 879.583L986.759 879.621C986.311 885.433 985.412 891.117 984.099 896.64L983.613 896.524C982.277 902.144 980.509 907.596 978.347 912.842L978.809 913.033C976.606 918.379 973.995 923.513 971.015 928.395L970.588 928.135C967.598 933.034 964.235 937.68 960.538 942.031L960.919 942.355C957.195 946.738 953.133 950.825 948.775 954.574L948.449 954.195C944.118 957.92 939.493 961.311 934.613 964.326L934.876 964.751C930.007 967.76 924.886 970.397 919.552 972.622L919.36 972.161C914.121 974.347 908.676 976.134 903.062 977.486L903.18 977.972C897.659 979.301 891.976 980.21 886.167 980.664L886.128 980.166C883.296 980.387 880.434 980.5 877.545 980.5C874.657 980.5 871.795 980.387 868.963 980.166L868.924 980.664C863.114 980.21 857.432 979.301 851.911 977.972L852.028 977.486C846.415 976.134 840.97 974.347 835.731 972.161L835.539 972.622C830.205 970.397 825.084 967.76 820.215 964.751L820.478 964.326C815.598 961.311 810.973 957.92 806.642 954.195L806.316 954.574C801.958 950.825 797.896 946.738 794.172 942.355L794.553 942.031C790.856 937.68 787.493 933.034 784.502 928.135L784.076 928.395C781.096 923.513 778.485 918.379 776.282 913.033L776.744 912.842C774.582 907.596 772.814 902.144 771.478 896.524L770.992 896.64C769.679 891.117 768.78 885.433 768.332 879.621L768.83 879.583C768.611 876.751 768.5 873.889 768.5 871C768.5 868.111 768.611 865.249 768.83 862.417L768.332 862.379C768.78 856.567 769.679 850.883 770.992 845.36L771.478 845.476C772.814 839.856 774.582 834.404 776.744 829.158L776.282 828.968C778.485 823.621 781.096 818.487 784.076 813.605L784.502 813.865C787.493 808.966 790.856 804.32 794.553 799.969L794.172 799.645C797.896 795.262 801.958 791.175 806.316 787.426L806.642 787.805C810.973 784.08 815.598 780.689 820.478 777.674L820.215 777.249C825.084 774.24 830.205 771.603 835.539 769.378L835.731 769.839C840.97 767.653 846.415 765.866 852.028 764.514L851.911 764.028C857.432 762.699 863.114 761.79 868.924 761.336L868.963 761.834C871.795 761.613 874.657 761.5 877.545 761.5C880.434 761.5 883.296 761.613 886.128 761.834L886.167 761.336C891.976 761.79 897.659 762.699 903.18 764.028L903.062 764.514C908.676 765.866 914.121 767.653 919.36 769.839L919.552 769.378C924.886 771.603 930.007 774.24 934.876 777.249L934.613 777.674C939.493 780.689 944.118 784.08 948.449 787.805L948.775 787.426C953.133 791.175 957.195 795.262 960.919 799.645L960.538 799.969C964.235 804.32 967.598 808.966 970.588 813.865L971.015 813.605C973.995 818.487 976.606 823.621 978.809 828.967L978.347 829.158C980.509 834.404 982.277 839.856 983.613 845.476L984.099 845.36Z" stroke="#FF952C" stroke-dasharray="17 17"/>
</g>
<defs>
<clipPath id="clip0_258_2">
<rect width="905" height="1819" fill="white"/>
</clipPath>
</defs>
</svg>
