<svg width="55" height="55" viewBox="0 0 55 55" fill="none" xmlns="http://www.w3.org/2000/svg">
<path d="M41.7157 9.70996C41.088 9.70996 40.4744 9.89609 39.9525 10.2448C39.4306 10.5935 39.0238 11.0892 38.7836 11.6691C38.5434 12.249 38.4805 12.8871 38.603 13.5028C38.7254 14.1184 39.0277 14.6839 39.4715 15.1277C39.9154 15.5716 40.4809 15.8738 41.0965 15.9963C41.7121 16.1188 42.3503 16.0559 42.9302 15.8157C43.5101 15.5755 44.0057 15.1687 44.3545 14.6468C44.7032 14.1249 44.8893 13.5113 44.8893 12.8836C44.8893 12.0419 44.5549 11.2347 43.9598 10.6395C43.3646 10.0443 42.5574 9.70996 41.7157 9.70996Z" fill="white"/>
<path d="M27.5207 14C24.8656 14.0063 22.272 14.7998 20.0678 16.2801C17.8637 17.7605 16.148 19.8612 15.1377 22.3166C14.1274 24.772 13.868 27.4718 14.3921 30.0747C14.9163 32.6776 16.2005 35.0666 18.0824 36.9396C19.9642 38.8126 22.3593 40.0855 24.9646 40.5973C27.57 41.1092 30.2686 40.8369 32.7192 39.8151C35.1698 38.7932 37.2623 37.0676 38.7322 34.8565C40.2021 32.6453 40.9833 30.048 40.977 27.3929C40.9729 25.6299 40.6215 23.8851 39.943 22.2579C39.2645 20.6308 38.2722 19.1532 37.0227 17.9096C35.7731 16.6659 34.2909 15.6806 32.6605 15.0098C31.0302 14.339 29.2837 13.9959 27.5207 14ZM27.5207 35.9935C25.8184 35.9998 24.1524 35.5007 22.7339 34.5595C21.3153 33.6183 20.208 32.2772 19.5522 30.7062C18.8964 29.1352 18.7215 27.4049 19.0498 25.7345C19.3781 24.0641 20.1947 22.5286 21.3962 21.3226C22.5978 20.1166 24.1302 19.2944 25.7994 18.9599C27.4686 18.6255 29.1995 18.7939 30.7729 19.4439C32.3463 20.094 33.6915 21.1963 34.6379 22.6113C35.5844 24.0264 36.0896 25.6905 36.0896 27.3929C36.0896 29.6684 35.1879 31.8512 33.5818 33.4632C31.9757 35.0752 29.7963 35.9851 27.5207 35.9935Z" fill="white"/>
<path d="M38.1605 54.4282H16.421C12.0917 54.4198 7.9426 52.6941 4.88431 49.6299C1.82601 46.5656 0.10839 42.4132 0.108398 38.0839V16.3443C0.10839 12.015 1.82601 7.86259 4.88431 4.79834C7.9426 1.7341 12.0917 0.0084064 16.421 0H38.1605C42.4927 0.00838765 46.6451 1.73306 49.7085 4.79641C52.7718 7.85975 54.4965 12.0121 54.5049 16.3443V38.0839C54.4965 42.4161 52.7718 46.5685 49.7085 49.6318C46.6451 52.6951 42.4927 54.4198 38.1605 54.4282ZM16.421 5.14132C13.4498 5.14132 10.6002 6.32163 8.49927 8.4226C6.3983 10.5236 5.21799 13.3731 5.21799 16.3443V38.0839C5.21799 41.0551 6.3983 43.9046 8.49927 46.0056C10.6002 48.1066 13.4498 49.2869 16.421 49.2869H38.1605C41.1347 49.2869 43.9875 48.1076 46.0935 46.0075C48.1995 43.9075 49.3869 41.058 49.3953 38.0839V16.3443C49.3869 13.3702 48.1995 10.5207 46.0935 8.42067C43.9875 6.3206 41.1347 5.14131 38.1605 5.14132H16.421Z" fill="white"/>
</svg>
