<svg width="1928" height="3170" viewBox="0 0 1928 3170" fill="none" xmlns="http://www.w3.org/2000/svg">
<g clip-path="url(#clip0_265_44)" filter="url(#filter0_d_265_44)">
<rect width="1920" height="3162" transform="translate(4)" fill="#FEFEFE"/>
<path d="M2101.86 256.462C2102.36 262.083 2102.7 267.751 2102.87 273.462L2101.37 273.506C2101.46 276.327 2101.5 279.159 2101.5 282C2101.5 284.841 2101.46 287.673 2101.37 290.494L2102.87 290.538C2102.7 296.249 2102.36 301.917 2101.86 307.538L2100.37 307.404C2099.86 313.059 2099.18 318.666 2098.34 324.219L2099.83 324.443C2098.97 330.088 2097.96 335.679 2096.77 341.209L2095.31 340.896C2094.12 346.445 2092.77 351.933 2091.26 357.355L2092.71 357.757C2091.18 363.248 2089.49 368.671 2087.64 374.022L2086.23 373.533C2084.38 378.888 2082.37 384.169 2080.22 389.372L2081.6 389.946C2079.42 395.205 2077.09 400.384 2074.6 405.476L2073.25 404.819C2070.77 409.907 2068.14 414.909 2065.36 419.819L2066.67 420.557C2063.87 425.509 2060.93 430.368 2057.84 435.128L2056.58 434.312C2053.51 439.059 2050.3 443.706 2046.95 448.249L2048.15 449.139C2044.78 453.714 2041.28 458.184 2037.64 462.542L2036.49 461.581C2032.87 465.921 2029.12 470.15 2025.24 474.262L2026.34 475.29C2022.44 479.425 2018.43 483.443 2014.29 487.337L2013.26 486.245C2009.15 490.117 2004.92 493.866 2000.58 497.487L2001.54 498.639C1997.18 502.275 1992.71 505.782 1988.14 509.154L1987.25 507.947C1982.71 511.295 1978.06 514.509 1973.31 517.584L1974.13 518.843C1969.37 521.927 1964.51 524.871 1959.56 527.67L1958.82 526.365C1953.91 529.14 1948.91 531.771 1943.82 534.253L1944.48 535.601C1939.38 538.086 1934.21 540.421 1928.95 542.602L1928.37 541.216C1923.17 543.373 1917.89 545.379 1912.53 547.227L1913.02 548.644C1907.67 550.491 1902.25 552.18 1896.76 553.708L1896.35 552.263C1890.93 553.772 1885.44 555.121 1879.9 556.307L1880.21 557.774C1874.68 558.955 1869.09 559.975 1863.44 560.827L1863.22 559.344C1857.67 560.182 1852.06 560.858 1846.4 561.365L1846.54 562.859C1840.92 563.364 1835.25 563.703 1829.54 563.873L1829.49 562.374C1826.67 562.458 1823.84 562.5 1821 562.5C1818.16 562.5 1815.33 562.458 1812.51 562.374L1812.46 563.873C1806.75 563.703 1801.08 563.364 1795.46 562.859L1795.6 561.365C1789.94 560.858 1784.33 560.182 1778.78 559.344L1778.56 560.827C1772.91 559.975 1767.32 558.955 1761.79 557.774L1762.1 556.307C1756.56 555.121 1751.07 553.772 1745.65 552.263L1745.24 553.708C1739.75 552.18 1734.33 550.491 1728.98 548.644L1729.47 547.227C1724.11 545.379 1718.83 543.373 1713.63 541.216L1713.05 542.602C1707.79 540.421 1702.62 538.086 1697.52 535.601L1698.18 534.253C1693.09 531.771 1688.09 529.14 1683.18 526.365L1682.44 527.67C1677.49 524.872 1672.63 521.927 1667.87 518.843L1668.69 517.584C1663.94 514.509 1659.29 511.295 1654.75 507.947L1653.86 509.154C1649.29 505.782 1644.82 502.275 1640.46 498.639L1641.42 497.487C1637.08 493.866 1632.85 490.117 1628.74 486.245L1627.71 487.337C1623.57 483.443 1619.56 479.426 1615.66 475.291L1616.76 474.262C1612.88 470.15 1609.13 465.921 1605.51 461.582L1604.36 462.542C1600.73 458.184 1597.22 453.714 1593.85 449.139L1595.05 448.249C1591.71 443.706 1588.49 439.059 1585.42 434.312L1584.16 435.128C1581.07 430.368 1578.13 425.509 1575.33 420.557L1576.64 419.819C1573.86 414.909 1571.23 409.907 1568.75 404.819L1567.4 405.476C1564.91 400.384 1562.58 395.205 1560.4 389.946L1561.78 389.372C1559.63 384.169 1557.62 378.888 1555.77 373.533L1554.36 374.022C1552.51 368.671 1550.82 363.248 1549.29 357.757L1550.74 357.355C1549.23 351.933 1547.88 346.445 1546.69 340.896L1545.23 341.209C1544.04 335.679 1543.03 330.088 1542.17 324.443L1543.66 324.219C1542.82 318.666 1542.14 313.059 1541.63 307.404L1540.14 307.538C1539.64 301.917 1539.3 296.249 1539.13 290.538L1540.63 290.494C1540.54 287.673 1540.5 284.841 1540.5 282C1540.5 279.159 1540.54 276.327 1540.63 273.506L1539.13 273.462C1539.3 267.751 1539.64 262.083 1540.14 256.462L1541.63 256.596C1542.14 250.941 1542.82 245.334 1543.66 239.781L1542.17 239.557C1543.03 233.912 1544.04 228.321 1545.23 222.791L1546.69 223.105C1547.88 217.555 1549.23 212.067 1550.74 206.645L1549.29 206.243C1550.82 200.752 1552.51 195.329 1554.36 189.978L1555.77 190.467C1557.62 185.112 1559.63 179.831 1561.78 174.628L1560.4 174.054C1562.58 168.795 1564.91 163.616 1567.4 158.524L1568.75 159.181C1571.23 154.093 1573.86 149.091 1576.64 144.181L1575.33 143.443C1578.13 138.491 1581.07 133.632 1584.16 128.872L1585.42 129.688C1588.49 124.941 1591.7 120.294 1595.05 115.751L1593.85 114.861C1597.22 110.286 1600.72 105.816 1604.36 101.458L1605.51 102.419C1609.13 98.0787 1612.88 93.8498 1616.76 89.7379L1615.66 88.7095C1619.56 84.5745 1623.57 80.5571 1627.71 76.6632L1628.74 77.7552C1632.85 73.883 1637.08 70.1337 1641.42 66.513L1640.46 65.3612C1644.82 61.725 1649.29 58.218 1653.86 54.8458L1654.75 56.0533C1659.29 52.705 1663.94 49.4906 1668.69 46.4156L1667.87 45.1567C1672.63 42.0728 1677.49 39.1286 1682.44 36.3297L1683.18 37.6355C1688.09 34.8603 1693.09 32.2289 1698.18 29.7468L1697.52 28.3987C1702.62 25.9145 1707.79 23.5791 1713.05 21.3983L1713.63 22.7839C1718.83 20.6265 1724.11 18.6212 1729.47 16.7735L1728.98 15.3556C1734.33 13.5093 1739.75 11.8196 1745.24 10.2919L1745.65 11.737C1751.07 10.2285 1756.56 8.87871 1762.1 7.69308L1761.79 6.22619C1767.32 5.04454 1772.91 4.02504 1778.56 3.17289L1778.78 4.65609C1784.33 3.81784 1789.94 3.1424 1795.6 2.63477L1795.46 1.14077C1801.08 0.636235 1806.75 0.296616 1812.46 0.12679L1812.51 1.62613C1815.33 1.54224 1818.16 1.5 1821 1.5C1823.84 1.5 1826.67 1.54224 1829.49 1.62613L1829.54 0.126789C1835.25 0.296614 1840.92 0.636232 1846.54 1.14077L1846.4 2.63476C1852.06 3.14239 1857.67 3.81784 1863.22 4.65608L1863.44 3.17288C1869.09 4.02503 1874.68 5.04453 1880.21 6.22618L1879.9 7.69307C1885.44 8.8787 1890.93 10.2284 1896.35 11.737L1896.76 10.2919C1902.25 11.8196 1907.67 13.5093 1913.02 15.3555L1912.53 16.7735C1917.89 18.6212 1923.17 20.6265 1928.37 22.7839L1928.95 21.3983C1934.21 23.5791 1939.38 25.9144 1944.48 28.3987L1943.82 29.7468C1948.91 32.2288 1953.91 34.8603 1958.82 37.6355L1959.56 36.3296C1964.51 39.1285 1969.37 42.0728 1974.13 45.1567L1973.31 46.4156C1978.06 49.4905 1982.71 52.705 1987.25 56.0532L1988.14 54.8457C1992.71 58.2179 1997.18 61.725 2001.54 65.3611L2000.58 66.5129C2004.92 70.1336 2009.15 73.883 2013.26 77.7551L2014.29 76.6631C2018.43 80.557 2022.44 84.5744 2026.34 88.7094L2025.24 89.7378C2029.12 93.8497 2032.87 98.0786 2036.49 102.418L2037.64 101.458C2041.27 105.816 2044.78 110.286 2048.15 114.861L2046.95 115.751C2050.29 120.294 2053.51 124.941 2056.58 129.688L2057.84 128.872C2060.93 133.632 2063.87 138.491 2066.67 143.443L2065.36 144.181C2068.14 149.091 2070.77 154.093 2073.25 159.181L2074.6 158.524C2077.09 163.616 2079.42 168.795 2081.6 174.054L2080.22 174.628C2082.37 179.831 2084.38 185.112 2086.23 190.467L2087.64 189.978C2089.49 195.329 2091.18 200.752 2092.71 206.243L2091.26 206.645C2092.77 212.067 2094.12 217.555 2095.31 223.104L2096.77 222.791C2097.96 228.321 2098.97 233.912 2099.83 239.557L2098.34 239.781C2099.18 245.334 2099.86 250.941 2100.37 256.596L2101.86 256.462Z" stroke="#515D86" stroke-opacity="0.5" stroke-width="3" stroke-dasharray="17 17"/>
<path d="M2101.86 2832.46C2102.36 2838.08 2102.7 2843.75 2102.87 2849.46L2101.37 2849.51C2101.46 2852.33 2101.5 2855.16 2101.5 2858C2101.5 2860.84 2101.46 2863.67 2101.37 2866.49L2102.87 2866.54C2102.7 2872.25 2102.36 2877.92 2101.86 2883.54L2100.37 2883.4C2099.86 2889.06 2099.18 2894.67 2098.34 2900.22L2099.83 2900.44C2098.97 2906.09 2097.96 2911.68 2096.77 2917.21L2095.31 2916.9C2094.12 2922.44 2092.77 2927.93 2091.26 2933.35L2092.71 2933.76C2091.18 2939.25 2089.49 2944.67 2087.64 2950.02L2086.23 2949.53C2084.38 2954.89 2082.37 2960.17 2080.22 2965.37L2081.6 2965.95C2079.42 2971.21 2077.09 2976.38 2074.6 2981.48L2073.25 2980.82C2070.77 2985.91 2068.14 2990.91 2065.36 2995.82L2066.67 2996.56C2063.87 3001.51 2060.93 3006.37 2057.84 3011.13L2056.58 3010.31C2053.51 3015.06 2050.3 3019.71 2046.95 3024.25L2048.15 3025.14C2044.78 3029.71 2041.28 3034.18 2037.64 3038.54L2036.49 3037.58C2032.87 3041.92 2029.12 3046.15 2025.24 3050.26L2026.34 3051.29C2022.44 3055.43 2018.43 3059.44 2014.29 3063.34L2013.26 3062.24C2009.15 3066.12 2004.92 3069.87 2000.58 3073.49L2001.54 3074.64C1997.18 3078.27 1992.71 3081.78 1988.14 3085.15L1987.25 3083.95C1982.71 3087.29 1978.06 3090.51 1973.31 3093.58L1974.13 3094.84C1969.37 3097.93 1964.51 3100.87 1959.56 3103.67L1958.82 3102.36C1953.91 3105.14 1948.91 3107.77 1943.82 3110.25L1944.48 3111.6C1939.38 3114.09 1934.21 3116.42 1928.95 3118.6L1928.37 3117.22C1923.17 3119.37 1917.89 3121.38 1912.53 3123.23L1913.02 3124.64C1907.67 3126.49 1902.25 3128.18 1896.76 3129.71L1896.35 3128.26C1890.93 3129.77 1885.44 3131.12 1879.9 3132.31L1880.21 3133.77C1874.68 3134.96 1869.09 3135.97 1863.44 3136.83L1863.22 3135.34C1857.67 3136.18 1852.06 3136.86 1846.4 3137.37L1846.54 3138.86C1840.92 3139.36 1835.25 3139.7 1829.54 3139.87L1829.49 3138.37C1826.67 3138.46 1823.84 3138.5 1821 3138.5C1818.16 3138.5 1815.33 3138.46 1812.51 3138.37L1812.46 3139.87C1806.75 3139.7 1801.08 3139.36 1795.46 3138.86L1795.6 3137.37C1789.94 3136.86 1784.33 3136.18 1778.78 3135.34L1778.56 3136.83C1772.91 3135.97 1767.32 3134.96 1761.79 3133.77L1762.1 3132.31C1756.56 3131.12 1751.07 3129.77 1745.65 3128.26L1745.24 3129.71C1739.75 3128.18 1734.33 3126.49 1728.98 3124.64L1729.47 3123.23C1724.11 3121.38 1718.83 3119.37 1713.63 3117.22L1713.05 3118.6C1707.79 3116.42 1702.62 3114.09 1697.52 3111.6L1698.18 3110.25C1693.09 3107.77 1688.09 3105.14 1683.18 3102.36L1682.44 3103.67C1677.49 3100.87 1672.63 3097.93 1667.87 3094.84L1668.69 3093.58C1663.94 3090.51 1659.29 3087.3 1654.75 3083.95L1653.86 3085.15C1649.29 3081.78 1644.82 3078.28 1640.46 3074.64L1641.42 3073.49C1637.08 3069.87 1632.85 3066.12 1628.74 3062.24L1627.71 3063.34C1623.57 3059.44 1619.56 3055.43 1615.66 3051.29L1616.76 3050.26C1612.88 3046.15 1609.13 3041.92 1605.51 3037.58L1604.36 3038.54C1600.73 3034.18 1597.22 3029.71 1593.85 3025.14L1595.05 3024.25C1591.71 3019.71 1588.49 3015.06 1585.42 3010.31L1584.16 3011.13C1581.07 3006.37 1578.13 3001.51 1575.33 2996.56L1576.64 2995.82C1573.86 2990.91 1571.23 2985.91 1568.75 2980.82L1567.4 2981.48C1564.91 2976.38 1562.58 2971.21 1560.4 2965.95L1561.78 2965.37C1559.63 2960.17 1557.62 2954.89 1555.77 2949.53L1554.36 2950.02C1552.51 2944.67 1550.82 2939.25 1549.29 2933.76L1550.74 2933.35C1549.23 2927.93 1547.88 2922.44 1546.69 2916.9L1545.23 2917.21C1544.04 2911.68 1543.03 2906.09 1542.17 2900.44L1543.66 2900.22C1542.82 2894.67 1542.14 2889.06 1541.63 2883.4L1540.14 2883.54C1539.64 2877.92 1539.3 2872.25 1539.13 2866.54L1540.63 2866.49C1540.54 2863.67 1540.5 2860.84 1540.5 2858C1540.5 2855.16 1540.54 2852.33 1540.63 2849.51L1539.13 2849.46C1539.3 2843.75 1539.64 2838.08 1540.14 2832.46L1541.63 2832.6C1542.14 2826.94 1542.82 2821.33 1543.66 2815.78L1542.17 2815.56C1543.03 2809.91 1544.04 2804.32 1545.23 2798.79L1546.69 2799.1C1547.88 2793.56 1549.23 2788.07 1550.74 2782.65L1549.29 2782.24C1550.82 2776.75 1552.51 2771.33 1554.36 2765.98L1555.77 2766.47C1557.62 2761.11 1559.63 2755.83 1561.78 2750.63L1560.4 2750.05C1562.58 2744.79 1564.91 2739.62 1567.4 2734.52L1568.75 2735.18C1571.23 2730.09 1573.86 2725.09 1576.64 2720.18L1575.33 2719.44C1578.13 2714.49 1581.07 2709.63 1584.16 2704.87L1585.42 2705.69C1588.49 2700.94 1591.7 2696.29 1595.05 2691.75L1593.85 2690.86C1597.22 2686.29 1600.72 2681.82 1604.36 2677.46L1605.51 2678.42C1609.13 2674.08 1612.88 2669.85 1616.76 2665.74L1615.66 2664.71C1619.56 2660.57 1623.57 2656.56 1627.71 2652.66L1628.74 2653.76C1632.85 2649.88 1637.08 2646.13 1641.42 2642.51L1640.46 2641.36C1644.82 2637.73 1649.29 2634.22 1653.86 2630.85L1654.75 2632.05C1659.29 2628.71 1663.94 2625.49 1668.69 2622.42L1667.87 2621.16C1672.63 2618.07 1677.49 2615.13 1682.44 2612.33L1683.18 2613.64C1688.09 2610.86 1693.09 2608.23 1698.18 2605.75L1697.52 2604.4C1702.62 2601.91 1707.79 2599.58 1713.05 2597.4L1713.63 2598.78C1718.83 2596.63 1724.11 2594.62 1729.47 2592.77L1728.98 2591.36C1734.33 2589.51 1739.75 2587.82 1745.24 2586.29L1745.65 2587.74C1751.07 2586.23 1756.56 2584.88 1762.1 2583.69L1761.79 2582.23C1767.32 2581.04 1772.91 2580.03 1778.56 2579.17L1778.78 2580.66C1784.33 2579.82 1789.94 2579.14 1795.6 2578.63L1795.46 2577.14C1801.08 2576.64 1806.75 2576.3 1812.46 2576.13L1812.51 2577.63C1815.33 2577.54 1818.16 2577.5 1821 2577.5C1823.84 2577.5 1826.67 2577.54 1829.49 2577.63L1829.54 2576.13C1835.25 2576.3 1840.92 2576.64 1846.54 2577.14L1846.4 2578.63C1852.06 2579.14 1857.67 2579.82 1863.22 2580.66L1863.44 2579.17C1869.09 2580.03 1874.68 2581.04 1880.21 2582.23L1879.9 2583.69C1885.44 2584.88 1890.93 2586.23 1896.35 2587.74L1896.76 2586.29C1902.25 2587.82 1907.67 2589.51 1913.02 2591.36L1912.53 2592.77C1917.89 2594.62 1923.17 2596.63 1928.37 2598.78L1928.95 2597.4C1934.21 2599.58 1939.38 2601.91 1944.48 2604.4L1943.82 2605.75C1948.91 2608.23 1953.91 2610.86 1958.82 2613.64L1959.56 2612.33C1964.51 2615.13 1969.37 2618.07 1974.13 2621.16L1973.31 2622.42C1978.06 2625.49 1982.71 2628.7 1987.25 2632.05L1988.14 2630.85C1992.71 2634.22 1997.18 2637.72 2001.54 2641.36L2000.58 2642.51C2004.92 2646.13 2009.15 2649.88 2013.26 2653.76L2014.29 2652.66C2018.43 2656.56 2022.44 2660.57 2026.34 2664.71L2025.24 2665.74C2029.12 2669.85 2032.87 2674.08 2036.49 2678.42L2037.64 2677.46C2041.27 2681.82 2044.78 2686.29 2048.15 2690.86L2046.95 2691.75C2050.29 2696.29 2053.51 2700.94 2056.58 2705.69L2057.84 2704.87C2060.93 2709.63 2063.87 2714.49 2066.67 2719.44L2065.36 2720.18C2068.14 2725.09 2070.77 2730.09 2073.25 2735.18L2074.6 2734.52C2077.09 2739.62 2079.42 2744.79 2081.6 2750.05L2080.22 2750.63C2082.37 2755.83 2084.38 2761.11 2086.23 2766.47L2087.64 2765.98C2089.49 2771.33 2091.18 2776.75 2092.71 2782.24L2091.26 2782.65C2092.77 2788.07 2094.12 2793.56 2095.31 2799.1L2096.77 2798.79C2097.96 2804.32 2098.97 2809.91 2099.83 2815.56L2098.34 2815.78C2099.18 2821.33 2099.86 2826.94 2100.37 2832.6L2101.86 2832.46Z" stroke="#515D86" stroke-opacity="0.5" stroke-width="3" stroke-dasharray="17 17"/>
<path d="M819.859 2268.46C820.364 2274.08 820.703 2279.75 820.873 2285.46L819.374 2285.51C819.458 2288.33 819.5 2291.16 819.5 2294C819.5 2296.84 819.458 2299.67 819.374 2302.49L820.873 2302.54C820.703 2308.25 820.364 2313.92 819.859 2319.54L818.365 2319.4C817.858 2325.06 817.182 2330.67 816.344 2336.22L817.827 2336.44C816.975 2342.09 815.955 2347.68 814.774 2353.21L813.307 2352.9C812.121 2358.44 810.772 2363.93 809.263 2369.35L810.708 2369.76C809.18 2375.25 807.491 2380.67 805.644 2386.02L804.227 2385.53C802.379 2390.89 800.373 2396.17 798.216 2401.37L799.602 2401.95C797.421 2407.21 795.086 2412.38 792.601 2417.48L791.253 2416.82C788.771 2421.91 786.14 2426.91 783.365 2431.82L784.67 2432.56C781.872 2437.51 778.927 2442.37 775.843 2447.13L774.584 2446.31C771.509 2451.06 768.295 2455.71 764.947 2460.25L766.154 2461.14C762.782 2465.71 759.275 2470.18 755.639 2474.54L754.487 2473.58C750.866 2477.92 747.117 2482.15 743.245 2486.26L744.337 2487.29C740.443 2491.43 736.426 2495.44 732.291 2499.34L731.262 2498.24C727.15 2502.12 722.921 2505.87 718.582 2509.49L719.542 2510.64C715.184 2514.27 710.714 2517.78 706.139 2521.15L705.249 2519.95C700.706 2523.29 696.059 2526.51 691.312 2529.58L692.128 2530.84C687.368 2533.93 682.509 2536.87 677.557 2539.67L676.819 2538.36C671.909 2541.14 666.907 2543.77 661.819 2546.25L662.476 2547.6C657.384 2550.09 652.205 2552.42 646.946 2554.6L646.372 2553.22C641.169 2555.37 635.888 2557.38 630.533 2559.23L631.022 2560.64C625.671 2562.49 620.248 2564.18 614.757 2565.71L614.355 2564.26C608.933 2565.77 603.445 2567.12 597.896 2568.31L598.209 2569.77C592.679 2570.96 587.088 2571.97 581.443 2572.83L581.219 2571.34C575.666 2572.18 570.059 2572.86 564.404 2573.37L564.538 2574.86C558.917 2575.36 553.249 2575.7 547.538 2575.87L547.494 2574.37C544.673 2574.46 541.841 2574.5 539 2574.5C536.159 2574.5 533.327 2574.46 530.506 2574.37L530.462 2575.87C524.751 2575.7 519.083 2575.36 513.462 2574.86L513.596 2573.37C507.941 2572.86 502.334 2572.18 496.781 2571.34L496.557 2572.83C490.912 2571.97 485.321 2570.96 479.791 2569.77L480.105 2568.31C474.555 2567.12 469.067 2565.77 463.645 2564.26L463.243 2565.71C457.752 2564.18 452.329 2562.49 446.978 2560.64L447.467 2559.23C442.112 2557.38 436.831 2555.37 431.628 2553.22L431.054 2554.6C425.795 2552.42 420.616 2550.09 415.524 2547.6L416.181 2546.25C411.093 2543.77 406.091 2541.14 401.181 2538.36L400.443 2539.67C395.491 2536.87 390.632 2533.93 385.872 2530.84L386.688 2529.58C381.941 2526.51 377.294 2523.3 372.751 2519.95L371.861 2521.15C367.286 2517.78 362.816 2514.28 358.458 2510.64L359.419 2509.49C355.079 2505.87 350.85 2502.12 346.738 2498.24L345.71 2499.34C341.574 2495.44 337.557 2491.43 333.663 2487.29L334.755 2486.26C330.883 2482.15 327.134 2477.92 323.513 2473.58L322.361 2474.54C318.725 2470.18 315.218 2465.71 311.846 2461.14L313.053 2460.25C309.705 2455.71 306.491 2451.06 303.416 2446.31L302.157 2447.13C299.073 2442.37 296.129 2437.51 293.33 2432.56L294.636 2431.82C291.86 2426.91 289.229 2421.91 286.747 2416.82L285.399 2417.48C282.914 2412.38 280.579 2407.21 278.398 2401.95L279.784 2401.37C277.627 2396.17 275.621 2390.89 273.774 2385.53L272.356 2386.02C270.509 2380.67 268.82 2375.25 267.292 2369.76L268.737 2369.35C267.228 2363.93 265.879 2358.44 264.693 2352.9L263.226 2353.21C262.045 2347.68 261.025 2342.09 260.173 2336.44L261.656 2336.22C260.818 2330.67 260.142 2325.06 259.635 2319.4L258.141 2319.54C257.636 2313.92 257.297 2308.25 257.127 2302.54L258.626 2302.49C258.542 2299.67 258.5 2296.84 258.5 2294C258.5 2291.16 258.542 2288.33 258.626 2285.51L257.127 2285.46C257.297 2279.75 257.636 2274.08 258.141 2268.46L259.635 2268.6C260.142 2262.94 260.818 2257.33 261.656 2251.78L260.173 2251.56C261.025 2245.91 262.045 2240.32 263.226 2234.79L264.693 2235.1C265.879 2229.56 267.228 2224.07 268.737 2218.65L267.292 2218.24C268.82 2212.75 270.509 2207.33 272.356 2201.98L273.773 2202.47C275.621 2197.11 277.627 2191.83 279.784 2186.63L278.398 2186.05C280.579 2180.79 282.914 2175.62 285.399 2170.52L286.747 2171.18C289.229 2166.09 291.86 2161.09 294.635 2156.18L293.33 2155.44C296.129 2150.49 299.073 2145.63 302.157 2140.87L303.416 2141.69C306.491 2136.94 309.705 2132.29 313.053 2127.75L311.846 2126.86C315.218 2122.29 318.725 2117.82 322.361 2113.46L323.513 2114.42C327.134 2110.08 330.883 2105.85 334.755 2101.74L333.663 2100.71C337.557 2096.57 341.574 2092.56 345.709 2088.66L346.738 2089.76C350.85 2085.88 355.079 2082.13 359.418 2078.51L358.458 2077.36C362.816 2073.73 367.286 2070.22 371.861 2066.85L372.751 2068.05C377.294 2064.71 381.941 2061.49 386.688 2058.42L385.872 2057.16C390.632 2054.07 395.491 2051.13 400.443 2048.33L401.181 2049.64C406.091 2046.86 411.093 2044.23 416.181 2041.75L415.524 2040.4C420.616 2037.91 425.795 2035.58 431.054 2033.4L431.628 2034.78C436.831 2032.63 442.112 2030.62 447.467 2028.77L446.978 2027.36C452.329 2025.51 457.752 2023.82 463.243 2022.29L463.645 2023.74C469.067 2022.23 474.555 2020.88 480.104 2019.69L479.791 2018.23C485.321 2017.04 490.912 2016.03 496.557 2015.17L496.781 2016.66C502.334 2015.82 507.941 2015.14 513.596 2014.63L513.462 2013.14C519.083 2012.64 524.751 2012.3 530.462 2012.13L530.506 2013.63C533.327 2013.54 536.159 2013.5 539 2013.5C541.841 2013.5 544.673 2013.54 547.494 2013.63L547.538 2012.13C553.249 2012.3 558.917 2012.64 564.538 2013.14L564.404 2014.63C570.059 2015.14 575.666 2015.82 581.219 2016.66L581.443 2015.17C587.088 2016.03 592.679 2017.04 598.209 2018.23L597.896 2019.69C603.445 2020.88 608.933 2022.23 614.355 2023.74L614.757 2022.29C620.248 2023.82 625.671 2025.51 631.022 2027.36L630.533 2028.77C635.888 2030.62 641.169 2032.63 646.372 2034.78L646.946 2033.4C652.205 2035.58 657.384 2037.91 662.476 2040.4L661.819 2041.75C666.907 2044.23 671.909 2046.86 676.819 2049.64L677.557 2048.33C682.509 2051.13 687.368 2054.07 692.128 2057.16L691.312 2058.42C696.059 2061.49 700.706 2064.7 705.249 2068.05L706.139 2066.85C710.714 2070.22 715.184 2073.72 719.542 2077.36L718.581 2078.51C722.921 2082.13 727.15 2085.88 731.262 2089.76L732.29 2088.66C736.425 2092.56 740.443 2096.57 744.337 2100.71L743.245 2101.74C747.117 2105.85 750.866 2110.08 754.487 2114.42L755.639 2113.46C759.275 2117.82 762.782 2122.29 766.154 2126.86L764.947 2127.75C768.295 2132.29 771.509 2136.94 774.584 2141.69L775.843 2140.87C778.927 2145.63 781.871 2150.49 784.67 2155.44L783.365 2156.18C786.14 2161.09 788.771 2166.09 791.253 2171.18L792.601 2170.52C795.086 2175.62 797.421 2180.79 799.602 2186.05L798.216 2186.63C800.373 2191.83 802.379 2197.11 804.227 2202.47L805.644 2201.98C807.491 2207.33 809.18 2212.75 810.708 2218.24L809.263 2218.65C810.772 2224.07 812.121 2229.56 813.307 2235.1L814.774 2234.79C815.955 2240.32 816.975 2245.91 817.827 2251.56L816.344 2251.78C817.182 2257.33 817.858 2262.94 818.365 2268.6L819.859 2268.46Z" stroke="#515D86" stroke-opacity="0.5" stroke-width="3" stroke-dasharray="17 17"/>
<path d="M689.261 919.491C689.588 925.121 689.808 930.781 689.918 936.468L688.418 936.497C688.473 939.324 688.5 942.159 688.5 945C688.5 947.841 688.473 950.676 688.418 953.504L689.918 953.533C689.808 959.219 689.588 964.879 689.261 970.51L687.764 970.423C687.435 976.083 686.997 981.713 686.452 987.313L687.945 987.458C687.393 993.125 686.733 998.759 685.965 1004.36L684.479 1004.16C683.709 1009.77 682.831 1015.35 681.847 1020.9L683.324 1021.16C682.331 1026.76 681.23 1032.32 680.025 1037.83L678.559 1037.51C677.351 1043.05 676.037 1048.54 674.619 1053.98L676.071 1054.36C674.639 1059.86 673.102 1065.32 671.462 1070.74L670.026 1070.3C668.384 1075.72 666.638 1081.1 664.791 1086.42L666.208 1086.91C664.348 1092.28 662.384 1097.6 660.321 1102.87L658.924 1102.32C656.861 1107.59 654.697 1112.8 652.434 1117.97L653.808 1118.57C651.531 1123.77 649.155 1128.91 646.682 1134L645.333 1133.35C642.86 1138.44 640.291 1143.47 637.627 1148.44L638.949 1149.15C636.269 1154.15 633.494 1159.1 630.625 1163.98L629.332 1163.22C626.468 1168.1 623.511 1172.91 620.464 1177.66L621.727 1178.47C618.664 1183.25 615.51 1187.96 612.267 1192.6L611.037 1191.74C607.802 1196.38 604.477 1200.94 601.067 1205.44L602.262 1206.35C598.836 1210.87 595.323 1215.32 591.726 1219.7L590.567 1218.74C586.98 1223.11 583.308 1227.41 579.555 1231.63L580.676 1232.62C576.909 1236.86 573.059 1241.02 569.13 1245.11L568.049 1244.07C564.134 1248.14 560.139 1252.13 556.067 1256.05L557.107 1257.13C553.022 1261.06 548.859 1264.91 544.623 1268.68L543.626 1267.56C539.405 1271.31 535.111 1274.98 530.744 1278.57L531.697 1279.73C527.319 1283.32 522.869 1286.84 518.35 1290.26L517.444 1289.07C512.945 1292.48 508.377 1295.8 503.743 1299.04L504.602 1300.27C499.958 1303.51 495.248 1306.66 490.473 1309.73L489.663 1308.46C484.912 1311.51 480.098 1314.47 475.223 1317.33L475.982 1318.63C471.099 1321.49 466.154 1324.27 461.151 1326.95L460.443 1325.63C455.469 1328.29 450.437 1330.86 445.349 1333.33L446.004 1334.68C440.915 1337.15 435.77 1339.53 430.571 1341.81L429.969 1340.43C424.805 1342.7 419.587 1344.86 414.319 1346.92L414.867 1348.32C409.599 1350.38 404.28 1352.35 398.914 1354.21L398.423 1352.79C393.095 1354.64 387.721 1356.38 382.301 1358.03L382.736 1359.46C377.322 1361.1 371.864 1362.64 366.362 1364.07L365.985 1362.62C360.536 1364.04 355.045 1365.35 349.515 1366.56L349.835 1368.02C344.315 1369.23 338.756 1370.33 333.16 1371.32L332.898 1369.85C327.353 1370.83 321.772 1371.71 316.156 1372.48L316.36 1373.96C310.759 1374.73 305.125 1375.39 299.458 1375.94L299.313 1374.45C293.713 1375 288.082 1375.43 282.422 1375.76L282.509 1377.26C276.879 1377.59 271.219 1377.81 265.532 1377.92L265.503 1376.42C262.676 1376.47 259.841 1376.5 257 1376.5C254.159 1376.5 251.324 1376.47 248.496 1376.42L248.467 1377.92C242.781 1377.81 237.121 1377.59 231.49 1377.26L231.577 1375.76C225.917 1375.43 220.287 1375 214.687 1374.45L214.542 1375.94C208.875 1375.39 203.241 1374.73 197.64 1373.96L197.844 1372.48C192.228 1371.71 186.647 1370.83 181.102 1369.85L180.84 1371.32C175.244 1370.33 169.685 1369.23 164.165 1368.02L164.485 1366.56C158.955 1365.35 153.464 1364.04 148.015 1362.62L147.638 1364.07C142.136 1362.64 136.678 1361.1 131.264 1359.46L131.699 1358.03C126.279 1356.38 120.905 1354.64 115.577 1352.79L115.086 1354.21C109.72 1352.35 104.401 1350.38 99.1335 1348.32L99.6805 1346.92C94.4128 1344.86 89.1955 1342.7 84.031 1340.43L83.4291 1341.81C78.2305 1339.53 73.0852 1337.15 67.9956 1334.68L68.6512 1333.33C63.5632 1330.86 58.531 1328.29 53.5572 1325.63L52.8489 1326.95C47.8456 1324.27 42.901 1321.49 38.0176 1318.63L38.7773 1317.33C33.9018 1314.47 29.0876 1311.51 24.3369 1308.46L23.5271 1309.73C18.7524 1306.66 14.0418 1303.51 9.39783 1300.27L10.2566 1299.04C5.62259 1295.8 1.05505 1292.48 -3.44353 1289.07L-4.34976 1290.26C-8.86885 1286.84 -13.3186 1283.32 -17.6965 1279.73L-16.7443 1278.57C-21.1107 1274.98 -25.4054 1271.31 -29.6259 1267.56L-30.6227 1268.68C-34.8594 1264.91 -39.0215 1261.06 -43.1067 1257.13L-42.067 1256.05C-46.1386 1252.13 -50.1335 1248.14 -54.0493 1244.07L-55.1304 1245.11C-59.0592 1241.02 -62.9086 1236.86 -66.676 1232.62L-65.5551 1231.63C-69.3083 1227.41 -72.9799 1223.11 -76.5674 1218.74L-77.7263 1219.7C-81.3233 1215.32 -84.8361 1210.87 -88.2622 1206.35L-87.0669 1205.44C-90.4774 1200.94 -93.8018 1196.38 -97.0375 1191.74L-98.2673 1192.6C-101.51 1187.96 -104.664 1183.25 -107.727 1178.47L-106.464 1177.66C-109.511 1172.91 -112.468 1168.1 -115.332 1163.22L-116.625 1163.98C-119.494 1159.1 -122.269 1154.15 -124.949 1149.15L-123.627 1148.44C-126.291 1143.47 -128.86 1138.44 -131.332 1133.35L-132.682 1134C-135.155 1128.91 -137.531 1123.77 -139.808 1118.57L-138.434 1117.97C-140.697 1112.8 -142.861 1107.59 -144.924 1102.32L-146.321 1102.87C-148.384 1097.6 -150.348 1092.28 -152.208 1086.91L-150.791 1086.42C-152.638 1081.1 -154.384 1075.72 -156.026 1070.3L-157.462 1070.74C-159.102 1065.32 -160.639 1059.86 -162.071 1054.36L-160.619 1053.98C-162.037 1048.54 -163.351 1043.05 -164.559 1037.51L-166.025 1037.83C-167.23 1032.32 -168.331 1026.76 -169.324 1021.16L-167.847 1020.9C-168.831 1015.35 -169.709 1009.77 -170.479 1004.16L-171.965 1004.36C-172.733 998.759 -173.393 993.125 -173.945 987.458L-172.452 987.313C-172.997 981.713 -173.435 976.082 -173.764 970.422L-175.261 970.509C-175.588 964.879 -175.808 959.219 -175.918 953.532L-174.418 953.503C-174.473 950.676 -174.5 947.841 -174.5 945C-174.5 942.159 -174.473 939.324 -174.418 936.496L-175.918 936.467C-175.808 930.781 -175.588 925.121 -175.261 919.49L-173.764 919.577C-173.435 913.917 -172.997 908.287 -172.452 902.687L-173.945 902.542C-173.393 896.875 -172.733 891.241 -171.965 885.64L-170.479 885.844C-169.709 880.228 -168.831 874.647 -167.847 869.102L-169.324 868.84C-168.331 863.244 -167.23 857.685 -166.025 852.165L-164.559 852.485C-163.351 846.955 -162.037 841.464 -160.619 836.015L-162.071 835.638C-160.639 830.136 -159.102 824.678 -157.462 819.264L-156.026 819.699C-154.384 814.279 -152.638 808.905 -150.791 803.577L-152.208 803.086C-150.348 797.72 -148.384 792.401 -146.321 787.133L-144.924 787.681C-142.861 782.413 -140.697 777.195 -138.434 772.031L-139.808 771.429C-137.531 766.231 -135.155 761.085 -132.682 755.996L-131.333 756.651C-128.86 751.563 -126.291 746.531 -123.627 741.557L-124.949 740.849C-122.269 735.846 -119.494 730.901 -116.625 726.018L-115.332 726.777C-112.468 721.902 -109.511 717.088 -106.464 712.337L-107.727 711.527C-104.664 706.752 -101.51 702.042 -98.2674 697.398L-97.0375 698.257C-93.8018 693.623 -90.4775 689.055 -87.0669 684.556L-88.2622 683.65C-84.8361 679.131 -81.3233 674.681 -77.7264 670.303L-76.5674 671.256C-72.9799 666.889 -69.3083 662.595 -65.5551 658.374L-66.6761 657.377C-62.9086 653.141 -59.0592 648.979 -55.1304 644.893L-54.0493 645.933C-50.1335 641.861 -46.1386 637.866 -42.067 633.951L-43.1067 632.87C-39.0215 628.941 -34.8594 625.091 -30.6227 621.324L-29.6259 622.445C-25.4054 618.692 -21.1107 615.02 -16.7443 611.433L-17.6965 610.274C-13.3186 606.677 -8.86887 603.164 -4.34978 599.738L-3.44356 600.933C1.05502 597.523 5.62254 594.198 10.2566 590.963L9.39781 589.733C14.0418 586.49 18.7524 583.336 23.527 580.273L24.3369 581.536C29.0876 578.489 33.9018 575.532 38.7773 572.668L38.0176 571.375C42.901 568.506 47.8456 565.731 52.8489 563.051L53.5572 564.373C58.531 561.709 63.5632 559.14 68.6512 556.668L67.9956 555.318C73.0852 552.845 78.2305 550.469 83.4291 548.192L84.0309 549.566C89.1955 547.303 94.4128 545.139 99.6805 543.076L99.1335 541.679C104.401 539.616 109.72 537.652 115.086 535.792L115.577 537.209C120.905 535.361 126.279 533.616 131.699 531.974L131.264 530.538C136.678 528.898 142.136 527.361 147.638 525.929L148.015 527.381C153.464 525.963 158.955 524.649 164.485 523.441L164.165 521.975C169.685 520.77 175.244 519.669 180.84 518.676L181.102 520.153C186.647 519.169 192.228 518.291 197.844 517.521L197.64 516.035C203.241 515.267 208.875 514.607 214.542 514.055L214.687 515.548C220.287 515.003 225.918 514.565 231.578 514.236L231.491 512.739C237.121 512.412 242.781 512.192 248.468 512.082L248.497 513.582C251.324 513.527 254.159 513.5 257 513.5C259.841 513.5 262.676 513.527 265.504 513.582L265.533 512.082C271.219 512.192 276.879 512.412 282.51 512.739L282.423 514.236C288.083 514.565 293.713 515.003 299.313 515.548L299.458 514.055C305.125 514.607 310.759 515.267 316.36 516.035L316.156 517.521C321.772 518.291 327.353 519.169 332.898 520.153L333.16 518.676C338.756 519.669 344.315 520.77 349.835 521.975L349.515 523.441C355.045 524.649 360.536 525.963 365.985 527.381L366.362 525.929C371.864 527.361 377.322 528.898 382.736 530.538L382.301 531.974C387.721 533.616 393.095 535.362 398.423 537.209L398.914 535.792C404.28 537.652 409.599 539.616 414.867 541.679L414.319 543.076C419.587 545.139 424.805 547.303 429.969 549.566L430.571 548.192C435.769 550.469 440.915 552.845 446.004 555.318L445.349 556.667C450.437 559.14 455.469 561.709 460.443 564.373L461.151 563.051C466.154 565.731 471.099 568.506 475.982 571.375L475.223 572.668C480.098 575.532 484.912 578.489 489.663 581.536L490.473 580.273C495.248 583.336 499.958 586.49 504.602 589.733L503.743 590.962C508.377 594.198 512.945 597.523 517.444 600.933L518.35 599.738C522.869 603.164 527.319 606.677 531.697 610.274L530.744 611.433C535.111 615.02 539.405 618.692 543.626 622.445L544.623 621.324C548.859 625.091 553.021 628.941 557.107 632.87L556.067 633.951C560.139 637.866 564.133 641.861 568.049 645.933L569.13 644.893C573.059 648.978 576.909 653.141 580.676 657.377L579.555 658.374C583.308 662.595 586.98 666.889 590.567 671.256L591.726 670.303C595.323 674.681 598.836 679.131 602.262 683.65L601.067 684.556C604.477 689.055 607.802 693.623 611.037 698.257L612.267 697.398C615.51 702.042 618.664 706.752 621.727 711.527L620.464 712.337C623.511 717.088 626.468 721.902 629.332 726.777L630.625 726.018C633.494 730.901 636.269 735.846 638.949 740.849L637.627 741.557C640.291 746.531 642.86 751.563 645.333 756.651L646.682 755.996C649.155 761.085 651.531 766.23 653.808 771.429L652.434 772.031C654.697 777.195 656.861 782.413 658.924 787.681L660.321 787.133C662.384 792.401 664.348 797.72 666.208 803.086L664.791 803.577C666.638 808.905 668.384 814.279 670.026 819.699L671.462 819.264C673.102 824.678 674.639 830.136 676.071 835.638L674.619 836.015C676.037 841.464 677.351 846.955 678.559 852.485L680.025 852.165C681.23 857.685 682.331 863.244 683.324 868.84L681.847 869.102C682.831 874.647 683.709 880.228 684.479 885.844L685.965 885.64C686.733 891.241 687.393 896.875 687.945 902.542L686.452 902.687C686.997 908.287 687.435 913.918 687.764 919.578L689.261 919.491Z" stroke="#515D86" stroke-opacity="0.5" stroke-width="3" stroke-dasharray="17 17"/>
<path d="M689.261 3495.49C689.588 3501.12 689.808 3506.78 689.918 3512.47L688.418 3512.5C688.473 3515.32 688.5 3518.16 688.5 3521C688.5 3523.84 688.473 3526.68 688.418 3529.5L689.918 3529.53C689.808 3535.22 689.588 3540.88 689.261 3546.51L687.764 3546.42C687.435 3552.08 686.997 3557.71 686.452 3563.31L687.945 3563.46C687.393 3569.12 686.733 3574.76 685.965 3580.36L684.479 3580.16C683.709 3585.77 682.831 3591.35 681.847 3596.9L683.324 3597.16C682.331 3602.76 681.23 3608.32 680.025 3613.83L678.559 3613.51C677.351 3619.05 676.037 3624.54 674.619 3629.98L676.071 3630.36C674.639 3635.86 673.102 3641.32 671.462 3646.74L670.026 3646.3C668.384 3651.72 666.638 3657.1 664.791 3662.42L666.208 3662.91C664.348 3668.28 662.384 3673.6 660.321 3678.87L658.924 3678.32C656.861 3683.59 654.697 3688.8 652.434 3693.97L653.808 3694.57C651.531 3699.77 649.155 3704.91 646.682 3710L645.333 3709.35C642.86 3714.44 640.291 3719.47 637.627 3724.44L638.949 3725.15C636.269 3730.15 633.494 3735.1 630.625 3739.98L629.332 3739.22C626.468 3744.1 623.511 3748.91 620.464 3753.66L621.727 3754.47C618.664 3759.25 615.51 3763.96 612.267 3768.6L611.037 3767.74C607.802 3772.38 604.477 3776.94 601.067 3781.44L602.262 3782.35C598.836 3786.87 595.323 3791.32 591.726 3795.7L590.567 3794.74C586.98 3799.11 583.308 3803.41 579.555 3807.63L580.676 3808.62C576.909 3812.86 573.059 3817.02 569.13 3821.11L568.049 3820.07C564.134 3824.14 560.139 3828.13 556.067 3832.05L557.107 3833.13C553.022 3837.06 548.859 3840.91 544.623 3844.68L543.626 3843.56C539.405 3847.31 535.111 3850.98 530.744 3854.57L531.697 3855.73C527.319 3859.32 522.869 3862.84 518.35 3866.26L517.444 3865.07C512.945 3868.48 508.377 3871.8 503.743 3875.04L504.602 3876.27C499.958 3879.51 495.248 3882.66 490.473 3885.73L489.663 3884.46C484.912 3887.51 480.098 3890.47 475.223 3893.33L475.982 3894.63C471.099 3897.49 466.154 3900.27 461.151 3902.95L460.443 3901.63C455.469 3904.29 450.437 3906.86 445.349 3909.33L446.004 3910.68C440.915 3913.15 435.77 3915.53 430.571 3917.81L429.969 3916.43C424.805 3918.7 419.587 3920.86 414.319 3922.92L414.867 3924.32C409.599 3926.38 404.28 3928.35 398.914 3930.21L398.423 3928.79C393.095 3930.64 387.721 3932.38 382.301 3934.03L382.736 3935.46C377.322 3937.1 371.864 3938.64 366.362 3940.07L365.985 3938.62C360.536 3940.04 355.045 3941.35 349.515 3942.56L349.835 3944.02C344.315 3945.23 338.756 3946.33 333.16 3947.32L332.898 3945.85C327.353 3946.83 321.772 3947.71 316.156 3948.48L316.36 3949.96C310.759 3950.73 305.125 3951.39 299.458 3951.94L299.313 3950.45C293.713 3951 288.082 3951.43 282.422 3951.76L282.509 3953.26C276.879 3953.59 271.219 3953.81 265.532 3953.92L265.503 3952.42C262.676 3952.47 259.841 3952.5 257 3952.5C254.159 3952.5 251.324 3952.47 248.496 3952.42L248.467 3953.92C242.781 3953.81 237.121 3953.59 231.49 3953.26L231.577 3951.76C225.917 3951.43 220.287 3951 214.687 3950.45L214.542 3951.94C208.875 3951.39 203.241 3950.73 197.64 3949.96L197.844 3948.48C192.228 3947.71 186.647 3946.83 181.102 3945.85L180.84 3947.32C175.244 3946.33 169.685 3945.23 164.165 3944.02L164.485 3942.56C158.955 3941.35 153.464 3940.04 148.015 3938.62L147.638 3940.07C142.136 3938.64 136.678 3937.1 131.264 3935.46L131.699 3934.03C126.279 3932.38 120.905 3930.64 115.577 3928.79L115.086 3930.21C109.72 3928.35 104.401 3926.38 99.1335 3924.32L99.6805 3922.92C94.4128 3920.86 89.1955 3918.7 84.031 3916.43L83.4291 3917.81C78.2305 3915.53 73.0852 3913.15 67.9956 3910.68L68.6512 3909.33C63.5632 3906.86 58.531 3904.29 53.5572 3901.63L52.8489 3902.95C47.8456 3900.27 42.901 3897.49 38.0176 3894.63L38.7773 3893.33C33.9018 3890.47 29.0876 3887.51 24.3369 3884.46L23.5271 3885.73C18.7524 3882.66 14.0418 3879.51 9.39783 3876.27L10.2566 3875.04C5.62259 3871.8 1.05505 3868.48 -3.44353 3865.07L-4.34976 3866.26C-8.86885 3862.84 -13.3186 3859.32 -17.6965 3855.73L-16.7443 3854.57C-21.1107 3850.98 -25.4054 3847.31 -29.6259 3843.56L-30.6227 3844.68C-34.8594 3840.91 -39.0215 3837.06 -43.1067 3833.13L-42.067 3832.05C-46.1386 3828.13 -50.1335 3824.14 -54.0493 3820.07L-55.1304 3821.11C-59.0592 3817.02 -62.9086 3812.86 -66.676 3808.62L-65.5551 3807.63C-69.3083 3803.41 -72.9799 3799.11 -76.5674 3794.74L-77.7263 3795.7C-81.3233 3791.32 -84.8361 3786.87 -88.2622 3782.35L-87.0669 3781.44C-90.4774 3776.94 -93.8018 3772.38 -97.0375 3767.74L-98.2673 3768.6C-101.51 3763.96 -104.664 3759.25 -107.727 3754.47L-106.464 3753.66C-109.511 3748.91 -112.468 3744.1 -115.332 3739.22L-116.625 3739.98C-119.494 3735.1 -122.269 3730.15 -124.949 3725.15L-123.627 3724.44C-126.291 3719.47 -128.86 3714.44 -131.332 3709.35L-132.682 3710C-135.155 3704.91 -137.531 3699.77 -139.808 3694.57L-138.434 3693.97C-140.697 3688.8 -142.861 3683.59 -144.924 3678.32L-146.321 3678.87C-148.384 3673.6 -150.348 3668.28 -152.208 3662.91L-150.791 3662.42C-152.638 3657.1 -154.384 3651.72 -156.026 3646.3L-157.462 3646.74C-159.102 3641.32 -160.639 3635.86 -162.071 3630.36L-160.619 3629.98C-162.037 3624.54 -163.351 3619.05 -164.559 3613.51L-166.025 3613.83C-167.23 3608.32 -168.331 3602.76 -169.324 3597.16L-167.847 3596.9C-168.831 3591.35 -169.709 3585.77 -170.479 3580.16L-171.965 3580.36C-172.733 3574.76 -173.393 3569.12 -173.945 3563.46L-172.452 3563.31C-172.997 3557.71 -173.435 3552.08 -173.764 3546.42L-175.261 3546.51C-175.588 3540.88 -175.808 3535.22 -175.918 3529.53L-174.418 3529.5C-174.473 3526.68 -174.5 3523.84 -174.5 3521C-174.5 3518.16 -174.473 3515.32 -174.418 3512.5L-175.918 3512.47C-175.808 3506.78 -175.588 3501.12 -175.261 3495.49L-173.764 3495.58C-173.435 3489.92 -172.997 3484.29 -172.452 3478.69L-173.945 3478.54C-173.393 3472.88 -172.733 3467.24 -171.965 3461.64L-170.479 3461.84C-169.709 3456.23 -168.831 3450.65 -167.847 3445.1L-169.324 3444.84C-168.331 3439.24 -167.23 3433.68 -166.025 3428.17L-164.559 3428.49C-163.351 3422.95 -162.037 3417.46 -160.619 3412.02L-162.071 3411.64C-160.639 3406.14 -159.102 3400.68 -157.462 3395.26L-156.026 3395.7C-154.384 3390.28 -152.638 3384.9 -150.791 3379.58L-152.208 3379.09C-150.348 3373.72 -148.384 3368.4 -146.321 3363.13L-144.924 3363.68C-142.861 3358.41 -140.697 3353.2 -138.434 3348.03L-139.808 3347.43C-137.531 3342.23 -135.155 3337.09 -132.682 3332L-131.333 3332.65C-128.86 3327.56 -126.291 3322.53 -123.627 3317.56L-124.949 3316.85C-122.269 3311.85 -119.494 3306.9 -116.625 3302.02L-115.332 3302.78C-112.468 3297.9 -109.511 3293.09 -106.464 3288.34L-107.727 3287.53C-104.664 3282.75 -101.51 3278.04 -98.2674 3273.4L-97.0375 3274.26C-93.8018 3269.62 -90.4775 3265.06 -87.0669 3260.56L-88.2622 3259.65C-84.8361 3255.13 -81.3233 3250.68 -77.7264 3246.3L-76.5674 3247.26C-72.9799 3242.89 -69.3083 3238.59 -65.5551 3234.37L-66.6761 3233.38C-62.9086 3229.14 -59.0592 3224.98 -55.1304 3220.89L-54.0493 3221.93C-50.1335 3217.86 -46.1386 3213.87 -42.067 3209.95L-43.1067 3208.87C-39.0215 3204.94 -34.8594 3201.09 -30.6227 3197.32L-29.6259 3198.44C-25.4054 3194.69 -21.1107 3191.02 -16.7443 3187.43L-17.6965 3186.27C-13.3186 3182.68 -8.86887 3179.16 -4.34978 3175.74L-3.44356 3176.93C1.05502 3173.52 5.62254 3170.2 10.2566 3166.96L9.39781 3165.73C14.0418 3162.49 18.7524 3159.34 23.527 3156.27L24.3369 3157.54C29.0876 3154.49 33.9018 3151.53 38.7773 3148.67L38.0176 3147.37C42.901 3144.51 47.8456 3141.73 52.8489 3139.05L53.5572 3140.37C58.531 3137.71 63.5632 3135.14 68.6512 3132.67L67.9956 3131.32C73.0852 3128.85 78.2305 3126.47 83.4291 3124.19L84.0309 3125.57C89.1955 3123.3 94.4128 3121.14 99.6805 3119.08L99.1335 3117.68C104.401 3115.62 109.72 3113.65 115.086 3111.79L115.577 3113.21C120.905 3111.36 126.279 3109.62 131.699 3107.97L131.264 3106.54C136.678 3104.9 142.136 3103.36 147.638 3101.93L148.015 3103.38C153.464 3101.96 158.955 3100.65 164.485 3099.44L164.165 3097.98C169.685 3096.77 175.244 3095.67 180.84 3094.68L181.102 3096.15C186.647 3095.17 192.228 3094.29 197.844 3093.52L197.64 3092.04C203.241 3091.27 208.875 3090.61 214.542 3090.06L214.687 3091.55C220.287 3091 225.918 3090.57 231.578 3090.24L231.491 3088.74C237.121 3088.41 242.781 3088.19 248.468 3088.08L248.497 3089.58C251.324 3089.53 254.159 3089.5 257 3089.5C259.841 3089.5 262.676 3089.53 265.504 3089.58L265.533 3088.08C271.219 3088.19 276.879 3088.41 282.51 3088.74L282.423 3090.24C288.083 3090.57 293.713 3091 299.313 3091.55L299.458 3090.06C305.125 3090.61 310.759 3091.27 316.36 3092.04L316.156 3093.52C321.772 3094.29 327.353 3095.17 332.898 3096.15L333.16 3094.68C338.756 3095.67 344.315 3096.77 349.835 3097.98L349.515 3099.44C355.045 3100.65 360.536 3101.96 365.985 3103.38L366.362 3101.93C371.864 3103.36 377.322 3104.9 382.736 3106.54L382.301 3107.97C387.721 3109.62 393.095 3111.36 398.423 3113.21L398.914 3111.79C404.28 3113.65 409.599 3115.62 414.867 3117.68L414.319 3119.08C419.587 3121.14 424.805 3123.3 429.969 3125.57L430.571 3124.19C435.769 3126.47 440.915 3128.85 446.004 3131.32L445.349 3132.67C450.437 3135.14 455.469 3137.71 460.443 3140.37L461.151 3139.05C466.154 3141.73 471.099 3144.51 475.982 3147.37L475.223 3148.67C480.098 3151.53 484.912 3154.49 489.663 3157.54L490.473 3156.27C495.248 3159.34 499.958 3162.49 504.602 3165.73L503.743 3166.96C508.377 3170.2 512.945 3173.52 517.444 3176.93L518.35 3175.74C522.869 3179.16 527.319 3182.68 531.697 3186.27L530.744 3187.43C535.111 3191.02 539.405 3194.69 543.626 3198.44L544.623 3197.32C548.859 3201.09 553.021 3204.94 557.107 3208.87L556.067 3209.95C560.139 3213.87 564.133 3217.86 568.049 3221.93L569.13 3220.89C573.059 3224.98 576.909 3229.14 580.676 3233.38L579.555 3234.37C583.308 3238.59 586.98 3242.89 590.567 3247.26L591.726 3246.3C595.323 3250.68 598.836 3255.13 602.262 3259.65L601.067 3260.56C604.477 3265.06 607.802 3269.62 611.037 3274.26L612.267 3273.4C615.51 3278.04 618.664 3282.75 621.727 3287.53L620.464 3288.34C623.511 3293.09 626.468 3297.9 629.332 3302.78L630.625 3302.02C633.494 3306.9 636.269 3311.85 638.949 3316.85L637.627 3317.56C640.291 3322.53 642.86 3327.56 645.333 3332.65L646.682 3332C649.155 3337.09 651.531 3342.23 653.808 3347.43L652.434 3348.03C654.697 3353.2 656.861 3358.41 658.924 3363.68L660.321 3363.13C662.384 3368.4 664.348 3373.72 666.208 3379.09L664.791 3379.58C666.638 3384.9 668.384 3390.28 670.026 3395.7L671.462 3395.26C673.102 3400.68 674.639 3406.14 676.071 3411.64L674.619 3412.02C676.037 3417.46 677.351 3422.95 678.559 3428.49L680.025 3428.17C681.23 3433.68 682.331 3439.24 683.324 3444.84L681.847 3445.1C682.831 3450.65 683.709 3456.23 684.479 3461.84L685.965 3461.64C686.733 3467.24 687.393 3472.88 687.945 3478.54L686.452 3478.69C686.997 3484.29 687.435 3489.92 687.764 3495.58L689.261 3495.49Z" stroke="#515D86" stroke-opacity="0.5" stroke-width="3" stroke-dasharray="17 17"/>
<path d="M2041.48 1518.89C2042.15 1524.62 2042.61 1530.42 2042.83 1536.27L2041.33 1536.33C2041.44 1539.21 2041.5 1542.1 2041.5 1545C2041.5 1547.9 2041.44 1550.79 2041.33 1553.67L2042.83 1553.73C2042.61 1559.58 2042.15 1565.38 2041.48 1571.11L2039.99 1570.93C2039.31 1576.71 2038.42 1582.41 2037.3 1588.03L2038.77 1588.33C2037.64 1594.06 2036.28 1599.72 2034.72 1605.28L2033.27 1604.88C2031.7 1610.46 2029.92 1615.95 2027.93 1621.34L2029.33 1621.86C2027.31 1627.33 2025.09 1632.71 2022.66 1637.97L2021.29 1637.34C2018.87 1642.59 2016.24 1647.74 2013.42 1652.76L2014.73 1653.49C2011.88 1658.57 2008.84 1663.53 2005.61 1668.35L2004.36 1667.51C2001.14 1672.32 1997.74 1676.99 1994.17 1681.51L1995.35 1682.44C1991.74 1687.01 1987.97 1691.43 1984.02 1695.69L1982.92 1694.68C1979 1698.91 1974.91 1703 1970.68 1706.92L1971.69 1708.02C1967.43 1711.97 1963.01 1715.74 1958.44 1719.35L1957.51 1718.17C1952.99 1721.74 1948.32 1725.14 1943.51 1728.36L1944.35 1729.61C1939.53 1732.84 1934.57 1735.88 1929.49 1738.73L1928.76 1737.42C1923.74 1740.24 1918.59 1742.87 1913.34 1745.29L1913.97 1746.66C1908.71 1749.09 1903.33 1751.31 1897.86 1753.33L1897.34 1751.93C1891.95 1753.92 1886.46 1755.7 1880.88 1757.27L1881.28 1758.72C1875.72 1760.28 1870.06 1761.64 1864.33 1762.77L1864.03 1761.3C1858.41 1762.42 1852.71 1763.31 1846.93 1763.99L1847.11 1765.48C1841.38 1766.15 1835.58 1766.61 1829.73 1766.83L1829.67 1765.33C1826.79 1765.44 1823.9 1765.5 1821 1765.5C1818.1 1765.5 1815.21 1765.44 1812.33 1765.33L1812.27 1766.83C1806.42 1766.61 1800.62 1766.15 1794.89 1765.48L1795.07 1763.99C1789.29 1763.31 1783.59 1762.42 1777.97 1761.3L1777.67 1762.77C1771.94 1761.64 1766.28 1760.28 1760.72 1758.72L1761.12 1757.27C1755.54 1755.7 1750.05 1753.92 1744.66 1751.93L1744.14 1753.33C1738.67 1751.31 1733.29 1749.09 1728.03 1746.66L1728.66 1745.29C1723.41 1742.87 1718.26 1740.24 1713.24 1737.42L1712.51 1738.73C1707.43 1735.88 1702.47 1732.84 1697.65 1729.61L1698.49 1728.36C1693.68 1725.14 1689.01 1721.74 1684.49 1718.17L1683.56 1719.35C1678.99 1715.74 1674.57 1711.97 1670.31 1708.02L1671.32 1706.92C1667.09 1703 1663 1698.91 1659.08 1694.68L1657.98 1695.69C1654.03 1691.43 1650.26 1687.01 1646.65 1682.44L1647.83 1681.51C1644.26 1676.99 1640.86 1672.32 1637.64 1667.51L1636.39 1668.35C1633.16 1663.53 1630.12 1658.57 1627.27 1653.49L1628.58 1652.76C1625.76 1647.74 1623.13 1642.59 1620.71 1637.34L1619.34 1637.97C1616.91 1632.71 1614.69 1627.33 1612.67 1621.86L1614.07 1621.34C1612.08 1615.95 1610.3 1610.46 1608.73 1604.88L1607.28 1605.28C1605.72 1599.72 1604.36 1594.06 1603.23 1588.33L1604.7 1588.03C1603.58 1582.41 1602.69 1576.71 1602.01 1570.93L1600.52 1571.11C1599.85 1565.38 1599.39 1559.58 1599.17 1553.73L1600.67 1553.67C1600.56 1550.79 1600.5 1547.9 1600.5 1545C1600.5 1542.1 1600.56 1539.21 1600.67 1536.33L1599.17 1536.27C1599.39 1530.42 1599.85 1524.62 1600.52 1518.89L1602.01 1519.07C1602.69 1513.29 1603.58 1507.59 1604.7 1501.97L1603.23 1501.67C1604.36 1495.94 1605.72 1490.28 1607.28 1484.72L1608.73 1485.12C1610.3 1479.54 1612.08 1474.05 1614.07 1468.66L1612.67 1468.14C1614.69 1462.67 1616.91 1457.29 1619.34 1452.03L1620.71 1452.66C1623.13 1447.41 1625.76 1442.26 1628.58 1437.24L1627.27 1436.51C1630.12 1431.43 1633.16 1426.47 1636.39 1421.65L1637.64 1422.49C1640.86 1417.68 1644.26 1413.01 1647.83 1408.49L1646.65 1407.56C1650.26 1402.99 1654.03 1398.57 1657.98 1394.31L1659.08 1395.32C1663 1391.09 1667.09 1387 1671.32 1383.08L1670.31 1381.98C1674.57 1378.03 1678.99 1374.26 1683.56 1370.65L1684.49 1371.83C1689.01 1368.26 1693.68 1364.86 1698.49 1361.64L1697.65 1360.39C1702.47 1357.16 1707.43 1354.12 1712.51 1351.27L1713.24 1352.58C1718.26 1349.76 1723.41 1347.13 1728.66 1344.71L1728.03 1343.34C1733.29 1340.91 1738.67 1338.69 1744.14 1336.67L1744.66 1338.07C1750.05 1336.08 1755.54 1334.3 1761.12 1332.73L1760.72 1331.28C1766.28 1329.72 1771.94 1328.36 1777.67 1327.23L1777.97 1328.7C1783.59 1327.58 1789.29 1326.69 1795.07 1326.01L1794.89 1324.52C1800.62 1323.85 1806.42 1323.39 1812.27 1323.17L1812.33 1324.67C1815.21 1324.56 1818.1 1324.5 1821 1324.5C1823.9 1324.5 1826.79 1324.56 1829.67 1324.67L1829.73 1323.17C1835.58 1323.39 1841.38 1323.85 1847.11 1324.52L1846.93 1326.01C1852.71 1326.69 1858.41 1327.58 1864.03 1328.7L1864.33 1327.23C1870.06 1328.36 1875.72 1329.72 1881.28 1331.28L1880.88 1332.73C1886.46 1334.3 1891.95 1336.08 1897.34 1338.07L1897.86 1336.67C1903.33 1338.69 1908.71 1340.91 1913.97 1343.34L1913.34 1344.71C1918.59 1347.13 1923.74 1349.76 1928.76 1352.58L1929.49 1351.27C1934.57 1354.12 1939.53 1357.16 1944.35 1360.39L1943.51 1361.64C1948.32 1364.86 1952.99 1368.26 1957.51 1371.83L1958.44 1370.65C1963.01 1374.26 1967.43 1378.03 1971.69 1381.98L1970.68 1383.08C1974.91 1387 1979 1391.09 1982.92 1395.32L1984.02 1394.31C1987.97 1398.57 1991.74 1402.99 1995.35 1407.56L1994.17 1408.49C1997.74 1413.01 2001.14 1417.68 2004.36 1422.49L2005.61 1421.65C2008.84 1426.47 2011.88 1431.43 2014.73 1436.51L2013.42 1437.24C2016.24 1442.26 2018.87 1447.41 2021.29 1452.66L2022.66 1452.03C2025.09 1457.29 2027.31 1462.67 2029.33 1468.14L2027.93 1468.66C2029.92 1474.05 2031.7 1479.54 2033.27 1485.12L2034.72 1484.72C2036.28 1490.28 2037.64 1495.94 2038.77 1501.67L2037.3 1501.97C2038.42 1507.59 2039.31 1513.29 2039.99 1519.07L2041.48 1518.89Z" stroke="#515D86" stroke-opacity="0.5" stroke-width="3" stroke-dasharray="17 17"/>
</g>
<defs>
<filter id="filter0_d_265_44" x="0" y="0" width="1928" height="3170" filterUnits="userSpaceOnUse" color-interpolation-filters="sRGB">
<feFlood flood-opacity="0" result="BackgroundImageFix"/>
<feColorMatrix in="SourceAlpha" type="matrix" values="0 0 0 0 0 0 0 0 0 0 0 0 0 0 0 0 0 0 127 0" result="hardAlpha"/>
<feOffset dy="4"/>
<feGaussianBlur stdDeviation="2"/>
<feComposite in2="hardAlpha" operator="out"/>
<feColorMatrix type="matrix" values="0 0 0 0 0 0 0 0 0 0 0 0 0 0 0 0 0 0 0.25 0"/>
<feBlend mode="normal" in2="BackgroundImageFix" result="effect1_dropShadow_265_44"/>
<feBlend mode="normal" in="SourceGraphic" in2="effect1_dropShadow_265_44" result="shape"/>
</filter>
<clipPath id="clip0_265_44">
<rect width="1920" height="3162" fill="white" transform="translate(4)"/>
</clipPath>
</defs>
</svg>
