<svg width="55" height="55" viewBox="0 0 55 55" fill="none" xmlns="http://www.w3.org/2000/svg">
<path d="M46.1027 46.2639H38.0856V33.7083C38.0856 30.7143 38.0321 26.8601 33.9158 26.8601C29.7402 26.8601 29.1014 30.1222 29.1014 33.4903V46.2631H21.0842V20.4437H28.7806V23.9722H28.8884C29.6586 22.6552 30.7716 21.5718 32.1089 20.8373C33.4461 20.1029 34.9575 19.7449 36.4821 19.8015C44.6078 19.8015 46.106 25.1464 46.106 32.0998L46.1027 46.2639ZM12.0382 16.9144C11.118 16.9145 10.2185 16.6418 9.45329 16.1307C8.68811 15.6196 8.09171 14.8931 7.73942 14.043C7.38714 13.1929 7.29481 12.2575 7.47417 11.3549C7.65352 10.4524 8.09649 9.62327 8.74703 8.97248C9.39757 8.32168 10.2265 7.87842 11.1289 7.69873C12.0314 7.51905 12.9668 7.61102 13.817 7.96301C14.6672 8.315 15.3939 8.9112 15.9053 9.67623C16.4166 10.4413 16.6897 11.3407 16.6898 12.2609C16.6899 12.8719 16.5697 13.4769 16.336 14.0415C16.1023 14.606 15.7597 15.119 15.3278 15.5511C14.8958 15.9832 14.383 16.326 13.8185 16.5599C13.2541 16.7938 12.6492 16.9143 12.0382 16.9144ZM16.0468 46.2639H8.02129V20.4437H16.0468V46.2639ZM50.0996 0.163843H3.99271C2.94621 0.152033 1.93779 0.55619 1.18912 1.2875C0.440445 2.01882 0.0127719 3.01745 0 4.06397V50.3636C0.0123348 51.4107 0.439757 52.41 1.1884 53.1421C1.93705 53.8741 2.94569 54.2791 3.99271 54.268H50.0996C51.1486 54.2811 52.1601 53.8773 52.9117 53.1453C53.6633 52.4132 54.0936 51.4128 54.1081 50.3636V4.06064C54.0931 3.01204 53.6626 2.01227 52.9109 1.28097C52.1593 0.549674 51.1481 0.146671 50.0996 0.160501" fill="white"/>
</svg>
