<svg width="264" height="24" viewBox="0 0 264 24" fill="none" xmlns="http://www.w3.org/2000/svg">
<path d="M6.3352 18.206V14.432H20.8872V18.206H6.3352ZM0.861203 23L11.1972 1.002H16.0932L26.5312 23H21.6012L12.5572 3.178H14.7332L5.7572 23H0.861203ZM34.2513 1.002V19.226H48.8713V23H29.7293V1.002H34.2513ZM77.7118 15.078C77.5078 16.846 76.8845 18.3533 75.8418 19.6C74.7992 20.8467 73.3825 21.7987 71.5918 22.456C69.8012 23.1133 67.6705 23.442 65.1998 23.442C63.1372 23.442 61.2445 23.204 59.5218 22.728C57.8218 22.252 56.3485 21.538 55.1018 20.586C53.8778 19.634 52.9258 18.4553 52.2458 17.05C51.5658 15.622 51.2258 13.956 51.2258 12.052C51.2258 10.148 51.5658 8.482 52.2458 7.054C52.9258 5.626 53.8778 4.436 55.1018 3.484C56.3485 2.50933 57.8218 1.784 59.5218 1.308C61.2445 0.809333 63.1372 0.559999 65.1998 0.559999C67.6705 0.559999 69.8012 0.899999 71.5918 1.58C73.4052 2.26 74.8332 3.23467 75.8758 4.504C76.9185 5.75067 77.5305 7.26933 77.7118 9.06H73.2238C72.9292 8.108 72.4305 7.292 71.7278 6.612C71.0478 5.90933 70.1638 5.37667 69.0758 5.014C67.9878 4.65133 66.6958 4.47 65.1998 4.47C63.3412 4.47 61.7092 4.76467 60.3038 5.354C58.8985 5.92067 57.8105 6.77067 57.0398 7.904C56.2692 9.01467 55.8838 10.3973 55.8838 12.052C55.8838 13.684 56.2692 15.0553 57.0398 16.166C57.8105 17.2767 58.8985 18.1267 60.3038 18.716C61.7092 19.2827 63.3412 19.566 65.1998 19.566C66.6958 19.566 67.9765 19.3847 69.0418 19.022C70.1298 18.6593 71.0138 18.138 71.6938 17.458C72.3965 16.778 72.9065 15.9847 73.2238 15.078H77.7118ZM86.1019 10.08H103.544V13.854H86.1019V10.08ZM102.796 1.002H107.318V23H102.796V1.002ZM82.1239 1.002H86.6459V23H82.1239V1.002ZM117.06 13.82V19.226H134.026V23H112.538V1.002H133.992V4.776H117.06V10.25H130.932V13.82H117.06ZM138.669 23V1.002H153.595C155.295 1.002 156.768 1.24 158.015 1.716C159.284 2.16933 160.27 2.89467 160.973 3.892C161.675 4.86667 162.027 6.12467 162.027 7.666C162.027 8.70867 161.845 9.59267 161.483 10.318C161.12 11.0433 160.61 11.6327 159.953 12.086C159.318 12.5393 158.581 12.8907 157.743 13.14C156.904 13.3667 156.009 13.514 155.057 13.582L154.581 13.31C156.167 13.3327 157.471 13.4687 158.491 13.718C159.511 13.9447 160.27 14.3753 160.769 15.01C161.29 15.622 161.551 16.54 161.551 17.764V23H157.029V18.07C157.029 17.2313 156.881 16.5853 156.587 16.132C156.292 15.656 155.759 15.3273 154.989 15.146C154.241 14.9647 153.153 14.874 151.725 14.874H143.191V23H138.669ZM143.191 11.338H153.595C154.864 11.338 155.827 11.032 156.485 10.42C157.165 9.808 157.505 8.98067 157.505 7.938C157.505 6.94067 157.165 6.18133 156.485 5.66C155.827 5.13866 154.864 4.878 153.595 4.878H143.191V11.338ZM167.405 1.002H171.927V23H167.405V1.002ZM200.086 18.512L198.658 19.09V1.002H203.18V23H198.658L180.876 5.626L182.304 5.048V23H177.782V1.002H182.304L200.086 18.512ZM221.077 23.442C219.037 23.442 217.189 23.204 215.535 22.728C213.903 22.252 212.486 21.538 211.285 20.586C210.106 19.634 209.199 18.4553 208.565 17.05C207.93 15.6447 207.613 14.024 207.613 12.188C207.613 10.3293 207.941 8.686 208.599 7.258C209.279 5.80733 210.231 4.58333 211.455 3.586C212.701 2.58867 214.175 1.84067 215.875 1.342C217.597 0.820666 219.501 0.559999 221.587 0.559999C224.057 0.559999 226.188 0.911333 227.979 1.614C229.769 2.294 231.175 3.25733 232.195 4.504C233.237 5.75067 233.827 7.23533 233.963 8.958H229.611C229.316 8.05133 228.829 7.26933 228.149 6.612C227.491 5.932 226.619 5.41067 225.531 5.048C224.443 4.66267 223.128 4.47 221.587 4.47C219.615 4.47 217.926 4.78733 216.521 5.422C215.138 6.05667 214.084 6.952 213.359 8.108C212.633 9.264 212.271 10.624 212.271 12.188C212.271 13.7067 212.588 15.0213 213.223 16.132C213.857 17.22 214.832 18.0587 216.147 18.648C217.484 19.2373 219.184 19.532 221.247 19.532C222.833 19.532 224.227 19.328 225.429 18.92C226.653 18.4893 227.673 17.9227 228.489 17.22C229.305 16.4947 229.883 15.69 230.223 14.806L231.991 14.16C231.696 17.084 230.585 19.362 228.659 20.994C226.755 22.626 224.227 23.442 221.077 23.442ZM230.835 23C230.835 22.2973 230.88 21.4927 230.971 20.586C231.061 19.6567 231.175 18.7273 231.311 17.798C231.447 16.846 231.571 15.9733 231.685 15.18H221.621V12.29H234.745V23H230.835ZM242.941 18.206V14.432H257.493V18.206H242.941ZM237.467 23L247.803 1.002H252.699L263.137 23H258.207L249.163 3.178H251.339L242.363 23H237.467Z" fill="#FAFAFA"/>
</svg>
