<svg width="52" height="43" viewBox="0 0 52 43" fill="none" xmlns="http://www.w3.org/2000/svg">
<path d="M51.3125 5.27476C49.6554 5.98895 47.913 6.48477 46.1287 6.74982C46.9606 6.74982 48.1766 5.11443 48.6886 4.50516C49.448 3.55125 50.0231 2.46376 50.3846 1.2985C50.3846 1.2985 50.3846 1.07403 50.3846 1.00989C50.3408 0.984565 50.2911 0.971228 50.2406 0.971228C50.19 0.971228 50.1404 0.984565 50.0966 1.00989C48.1649 2.04298 46.1116 2.82939 43.9847 3.35076C43.9205 3.38447 43.8492 3.40208 43.7767 3.40208C43.7043 3.40208 43.6329 3.38447 43.5687 3.35076C43.4037 3.14357 43.2217 2.9505 43.0247 2.77356C42.1402 2.01202 41.1342 1.40497 40.0488 0.977821C38.6125 0.379503 37.0562 0.126903 35.5049 0.240289C34.005 0.334163 32.5428 0.749713 31.217 1.45883C29.8721 2.16143 28.685 3.13271 27.7291 4.31276C26.7371 5.53131 26.0267 6.95498 25.6491 8.48143C25.3612 9.93159 25.3612 11.4244 25.6491 12.8746C25.6491 13.1311 25.6492 13.1632 25.4252 13.1311C17.3239 12.3093 9.82342 8.47682 4.40169 2.38876C4.1457 2.13223 4.0177 2.13223 3.8257 2.38876C2.72612 4.4093 2.30953 6.7325 2.63835 9.01025C2.96718 11.288 4.02373 13.3976 5.64966 15.023C6.05412 15.4218 6.48151 15.7966 6.92963 16.1454C5.51563 16.0363 4.13584 15.6552 2.86572 15.023C2.60972 14.8627 2.51374 15.023 2.48174 15.2154C2.43463 15.6202 2.43463 16.0292 2.48174 16.434C2.71405 18.3338 3.44718 20.1373 4.60574 21.659C5.76429 23.1807 7.30644 24.3656 9.07357 25.092C9.49983 25.2934 9.95225 25.4337 10.4175 25.5088C9.09449 25.7432 7.74067 25.7432 6.41763 25.5088C6.12964 25.5088 6.03365 25.5088 6.12965 25.8936C6.81418 27.6799 7.94432 29.2604 9.41209 30.4842C10.8799 31.7081 12.6362 32.5344 14.5134 32.8842C14.8974 32.8842 15.2494 32.8842 15.6334 32.8842C16.0174 32.8842 15.6334 32.8842 15.6334 32.8842C14.7054 34.3272 11.4415 35.3854 9.93756 36.0908C7.1613 37.0862 4.20327 37.469 1.26576 37.2132C0.785769 37.2132 0.689767 37.2132 0.56177 37.2132C0.433773 37.2132 0.56177 37.4056 0.56177 37.5018C0.56177 37.598 1.77776 38.2393 2.38575 38.592C4.22848 39.5669 6.17018 40.3409 8.1776 40.9008C13.3516 42.4614 18.8435 42.6341 24.105 41.4018C29.3664 40.1695 34.2131 37.5752 38.1608 33.8782C40.9989 30.791 43.1938 27.1673 44.6169 23.2193C46.04 19.2714 46.6627 15.0786 46.4486 10.8864C46.4486 10.5658 46.8326 10.3734 47.0566 10.213C48.6277 9.07224 50.0378 7.72393 51.2485 6.20469C51.4214 5.97393 51.5116 5.6915 51.5045 5.40303C51.5045 5.40303 51.5045 5.21062 51.3125 5.27476Z" fill="white"/>
</svg>
