<svg width="52" height="36" viewBox="0 0 52 36" fill="none" xmlns="http://www.w3.org/2000/svg">
<path d="M51.3468 11.5809C51.3468 8.62656 50.1732 5.79318 48.0842 3.70411C45.9951 1.61504 43.1617 0.441406 40.2073 0.441406H11.6444C8.69001 0.441406 5.85662 1.61504 3.76755 3.70411C1.67848 5.79318 0.504883 8.62656 0.504883 11.5809V24.8468C0.504883 27.8012 1.67848 30.6346 3.76755 32.7237C5.85662 34.8127 8.69001 35.9864 11.6444 35.9864H40.2073C43.1617 35.9864 45.9951 34.8127 48.0842 32.7237C50.1732 30.6346 51.3468 27.8012 51.3468 24.8468V11.5809ZM34.5899 19.1977L21.8953 25.545C21.3875 25.8307 19.6737 25.545 19.6737 24.8786V11.8983C19.6737 11.2953 21.3875 10.9462 21.8953 11.2318L34.1456 17.8965C34.5899 18.1821 35.1294 18.9121 34.5899 19.1977Z" fill="white"/>
</svg>
